<svg width="273" height="60" viewBox="0 0 273 60" fill="none" xmlns="http://www.w3.org/2000/svg">
<path d="M240.497 12.2914C240.955 12.7488 240.956 13.4845 240.501 13.939L236.02 18.4203C235.567 18.8733 234.828 18.8724 234.371 18.415L233.683 17.7275C233.226 17.2701 233.226 16.5329 233.679 16.0799L238.161 11.5986C238.615 11.1442 239.352 11.1465 239.81 11.6039L240.497 12.2914Z" fill="#2F2F2F"/>
<path d="M252.909 8.79906C257.183 13.0728 258.329 19.224 256.281 24.2415L247.698 15.6583C247.275 15.2351 246.586 15.2314 246.164 15.6534L240.665 21.1529C240.244 21.5734 240.245 22.2617 240.67 22.6865L249.253 31.2696C244.232 33.3201 238.081 32.1741 233.808 27.9003C233.108 27.2009 232.562 26.4013 231.963 25.6637C230.299 23.6157 227.682 23.0848 225.438 23.0777C223.194 23.0705 179.219 22.9293 179.219 22.9293C175.419 22.9187 172.327 19.8269 172.317 16.0271C172.303 12.2272 175.374 9.15655 179.174 9.1701L230.331 9.33124C230.938 9.33317 231.978 9.335 233.234 8.22435C235.49 6.23021 238.067 4.86768 240.908 4.52737C245.099 4.02556 249.575 5.46528 252.909 8.79906ZM184.738 14.4102C183.822 14.4058 183.083 15.145 183.087 16.0613C183.09 16.9761 183.834 17.7231 184.75 17.7245L221.224 17.8404C222.139 17.8433 222.88 17.1026 222.876 16.1893C222.873 15.2745 222.129 14.5305 221.211 14.5276L184.738 14.4102ZM238.087 9.8133L231.896 16.0048C231.441 16.4593 231.444 17.1964 231.899 17.6523L234.448 20.2006C234.905 20.6579 235.641 20.6588 236.095 20.2043L242.285 14.0143C242.74 13.5598 242.737 12.8226 242.28 12.3653L239.733 9.81853C239.279 9.36412 238.54 9.3603 238.087 9.8133Z" fill="#2F2F2F"/>
<path d="M251.211 42.0882L245.49 45.2692L245.49 51.6312L251.211 54.8123L256.932 51.6312L256.932 45.2692L251.211 42.0882ZM251.211 45.4911C252.874 45.4911 254.222 46.8159 254.222 48.4502C254.222 50.0845 252.874 51.4093 251.211 51.4093C249.548 51.4093 248.2 50.0845 248.2 48.4502C248.2 46.8159 249.548 45.4911 251.211 45.4911Z" fill="#A8A8A8"/>
<path d="M266.706 42.803L260.985 45.984L260.985 52.3461L266.706 55.5271L272.427 52.3461L272.427 45.984L266.706 42.803ZM266.706 46.206C268.369 46.206 269.717 47.5308 269.717 49.1651C269.717 50.7993 268.369 52.1241 266.706 52.1241C265.043 52.1241 263.695 50.7993 263.695 49.1651C263.695 47.5308 265.043 46.206 266.706 46.206Z" fill="#A8A8A8"/>
<path d="M264.938 32.0222L259.323 28.658L253.813 31.8391L253.919 38.3842L259.534 41.7483L265.044 38.5673L264.938 32.0222ZM261.991 33.7236C262.823 35.1638 262.349 36.9938 260.934 37.8109C259.519 38.628 257.697 38.1229 256.866 36.6827C256.034 35.2425 256.508 33.4126 257.923 32.5955C259.338 31.7783 261.16 32.2835 261.991 33.7236Z" fill="#A8A8A8"/>
<path d="M11.1462 51.5267H6.38717L10.3478 32.9758H3.58495L4.41466 28.9368H22.6995L21.8698 32.9758H15.1069L11.1462 51.5267ZM23.2161 41.3041H30.5112C30.5269 41.1946 30.5425 40.991 30.5425 40.8345C30.5425 39.1751 29.478 37.7505 27.3646 37.7505C25.2825 37.7505 23.7484 39.2534 23.2161 41.3041ZM26.0183 51.9024C21.3375 51.9024 18.5823 48.928 18.5823 44.3255C18.5823 38.6585 22.2142 34.3221 27.5212 34.3221C31.8576 34.3221 34.738 37.1243 34.738 41.5233C34.738 42.3374 34.6754 43.3393 34.5032 44.1377H22.7621C22.7464 44.3255 22.7308 44.4977 22.7308 44.6699C22.7308 46.8929 24.0615 48.4271 26.1905 48.4271C27.9752 48.4271 29.2745 47.5191 29.7911 46.1728H34.0023C33.1412 49.5229 30.0729 51.9024 26.0183 51.9024ZM43.7709 45.9849H43.6769L39.4658 51.5267H34.4406L41.5166 42.9949L38.0412 34.6978H42.8003L44.898 40.2396H44.9919L49.2031 34.6978H54.2126L47.1367 43.2297L50.612 51.5267H45.853L43.7709 45.9849ZM143.899 37.2182C143.899 37.1243 143.899 37.0147 143.883 36.7016C143.727 34.2908 141.754 32.6627 139.156 32.6627C134.929 32.6627 132.001 36.5607 132.001 42.0086C132.001 45.5779 133.911 47.7696 137.027 47.7696C139.625 47.7696 141.739 46.2667 142.6 43.8089H147.249C146.232 48.6932 142.067 51.9024 136.776 51.9024C130.906 51.9024 127.133 48.1296 127.133 42.2747C127.133 34.1655 132.127 28.5611 139.516 28.5611C144.697 28.5611 148.423 31.7547 148.564 36.4668C148.58 36.7956 148.564 37.0147 148.533 37.2182H143.899ZM154.122 41.3041H161.417C161.432 41.1946 161.448 40.991 161.448 40.8345C161.448 39.1751 160.384 37.7505 158.27 37.7505C156.188 37.7505 154.654 39.2534 154.122 41.3041ZM156.924 51.9024C152.243 51.9024 149.488 48.928 149.488 44.3255C149.488 38.6585 153.12 34.3221 158.427 34.3221C162.763 34.3221 165.644 37.1243 165.644 41.5233C165.644 42.3374 165.581 43.3393 165.409 44.1377H153.668C153.652 44.3255 153.636 44.4977 153.636 44.6699C153.636 46.8929 154.967 48.4271 157.096 48.4271C158.881 48.4271 160.18 47.5191 160.697 46.1728H164.908C164.047 49.5229 160.978 51.9024 156.924 51.9024ZM175.882 48.0201C178.465 48.0201 180.484 45.3744 180.484 41.8677C180.484 39.5351 179.263 38.0949 177.291 38.0949C174.536 38.0949 172.594 41.038 172.594 44.3725C172.594 46.5328 173.894 48.0201 175.882 48.0201ZM169.698 57.0216H165.252L169.996 34.6978H174.363L173.815 37.2026H173.909C175.068 35.4492 177.025 34.4317 179.154 34.4317C182.786 34.4317 185.024 37.046 185.024 41.1946C185.024 47.2843 181.455 51.7929 176.696 51.7929C174.207 51.7929 172.297 50.4622 171.639 48.3645H171.545L169.698 57.0216ZM185.776 51.5267L189.345 34.6978H197.345C200.57 34.6978 202.495 36.138 202.495 38.5176C202.495 40.5371 200.883 42.1965 198.613 42.5252L198.566 42.7287C200.507 42.9635 201.728 44.2003 201.728 45.9536C201.728 49.3037 198.863 51.5267 194.542 51.5267H185.776ZM194.558 44.2003H191.756L190.817 48.5367H193.885C195.842 48.5367 197.11 47.5348 197.11 46.0632C197.11 44.8108 196.28 44.2003 194.558 44.2003ZM195.889 37.6253H193.149L192.319 41.5077H194.934C196.765 41.5077 197.986 40.5997 197.986 39.222C197.986 38.1419 197.298 37.6253 195.889 37.6253ZM207.692 51.5267H203.278L206.847 34.6978H211.246L209.023 44.983H209.242L218.228 34.6978H222.643L219.074 51.5267H214.659L216.913 41.085H216.694L207.692 51.5267ZM232.537 34.3221C236.92 34.3221 239.66 37.0773 239.66 40.4118C239.66 40.8188 239.66 40.8501 239.66 40.9284H235.37C235.339 39.316 234.227 38.1106 232.364 38.1106C229.766 38.1106 227.95 40.7093 227.95 44.4194C227.95 46.6894 229.155 48.0983 231.002 48.0983C232.74 48.0983 234.024 47.0651 234.525 45.4057H238.83C238.172 49.2098 234.948 51.9024 230.846 51.9024C226.196 51.9024 223.457 48.9593 223.457 44.6073C223.457 38.5019 227.057 34.3221 232.537 34.3221Z" fill="#2F2F2F"/>
<path d="M63.4959 51.5267H58.7369L62.6975 32.9758H55.9347L56.7644 28.9368H75.0492L74.2195 32.9758H67.4566L63.4959 51.5267ZM80.9198 48.0201C83.5028 48.0201 85.5223 45.3744 85.5223 41.8677C85.5223 39.5351 84.3012 38.0949 82.3287 38.0949C79.5734 38.0949 77.6322 41.038 77.6322 44.3725C77.6322 46.5328 78.9316 48.0201 80.9198 48.0201ZM74.7361 57.0216H70.2901L75.0335 34.6978H79.4012L78.8533 37.2026H78.9472C80.1057 35.4492 82.0626 34.4317 84.1916 34.4317C87.8235 34.4317 90.0622 37.046 90.0622 41.1946C90.0622 47.2843 86.4929 51.7929 81.7338 51.7929C79.2447 51.7929 77.3348 50.4622 76.6773 48.3645H76.5834L74.7361 57.0216ZM98.0305 48.4427C99.8777 48.4427 101.49 47.2843 101.866 45.6562L102.179 44.2316L98.6253 44.3725C96.6998 44.4351 95.5257 45.2648 95.5257 46.5485C95.5257 47.6913 96.5433 48.4427 98.0305 48.4427ZM96.2302 51.7929C93.3966 51.7929 91.158 49.8517 91.158 47.1747C91.158 43.7776 93.9132 41.7268 98.4531 41.5703L102.774 41.4137L102.977 40.3962C103.04 40.13 103.04 39.9578 103.04 39.77C103.04 38.5959 102.054 37.8444 100.379 37.8444C98.688 37.8444 97.6078 38.5959 97.2947 39.7856H93.0679C93.6628 36.4825 96.6059 34.3221 100.707 34.3221C104.731 34.3221 107.439 36.3572 107.439 39.316C107.439 39.8013 107.376 40.3492 107.314 40.7093L105.013 51.5267H100.692L101.13 49.5073H101.036C100.066 50.8849 98.3123 51.7929 96.2302 51.7929ZM126.82 34.6978L118.335 42.9009L123.438 51.5267H118.397L114.155 44.3412H114.045L112.511 51.5267H108.034L111.603 34.6978H116.08L114.64 41.445H114.734L121.607 34.6978H126.82Z" fill="#EBB220"/>
</svg>
