<svg width="16" height="16" viewBox="0 0 16 16" fill="none" xmlns="http://www.w3.org/2000/svg">
<g clip-path="url(#clip0_30_24749)">
<path d="M14.6666 5.02344V11.3334C14.6666 11.8436 14.4717 12.3344 14.1217 12.7056C13.7718 13.0768 13.2932 13.3002 12.7839 13.3301L12.6666 13.3334H3.33325C2.82311 13.3335 2.33224 13.1386 1.96108 12.7886C1.58991 12.4386 1.36651 11.96 1.33659 11.4508L1.33325 11.3334V5.02344L7.62992 9.22144L7.70725 9.26544C7.79839 9.30997 7.89848 9.33311 7.99992 9.33311C8.10135 9.33311 8.20145 9.30997 8.29258 9.26544L8.36992 9.22144L14.6666 5.02344Z" fill="#FFBA08"/>
<path d="M12.6665 2.66675C13.3865 2.66675 14.0179 3.04675 14.3699 3.61808L7.99988 7.86475L1.62988 3.61808C1.79704 3.34659 2.02669 3.11902 2.29969 2.95434C2.57268 2.78966 2.8811 2.69265 3.19922 2.67141L3.33322 2.66675H12.6665Z" fill="#FFBA08"/>
</g>
<defs>
<clipPath id="clip0_30_24749">
<rect width="16" height="16" fill="white"/>
</clipPath>
</defs>
</svg>
