<svg width="16" height="16" viewBox="0 0 16 16" fill="none" xmlns="http://www.w3.org/2000/svg">
<path d="M13.3332 7.33258H14.6666C14.6666 3.91258 12.0846 1.33325 8.65991 1.33325V2.66659C11.3679 2.66659 13.3332 4.62858 13.3332 7.33258Z" fill="#FFBA08"/>
<path d="M8.66661 5.33333C10.0686 5.33333 10.6666 5.93133 10.6666 7.33333H11.9999C11.9999 5.18333 10.8166 4 8.66661 4V5.33333ZM10.9479 8.962C10.8198 8.84556 10.6515 8.78347 10.4785 8.78882C10.3055 8.79417 10.1413 8.86654 10.0206 8.99066L8.42528 10.6313C8.04128 10.558 7.26928 10.3173 6.47461 9.52466C5.67994 8.72933 5.43928 7.95533 5.36794 7.574L7.00728 5.978C7.13155 5.85742 7.20403 5.69321 7.20938 5.52013C7.21474 5.34706 7.15253 5.17869 7.03594 5.05066L4.57261 2.342C4.45597 2.21357 4.29386 2.13567 4.12071 2.12484C3.94756 2.11401 3.77701 2.1711 3.64528 2.284L2.19861 3.52466C2.08335 3.64034 2.01456 3.7943 2.00528 3.95733C1.99528 4.124 1.80461 8.072 4.86594 11.1347C7.53661 13.8047 10.8819 14 11.8033 14C11.9379 14 12.0206 13.996 12.0426 13.9947C12.2056 13.9855 12.3595 13.9164 12.4746 13.8007L13.7146 12.3533C13.8276 12.2217 13.8848 12.0512 13.8741 11.878C13.8634 11.7049 13.7856 11.5427 13.6573 11.426L10.9479 8.962Z" fill="#FFBA08"/>
</svg>
