<svg width="16" height="16" viewBox="0 0 16 16" fill="none" xmlns="http://www.w3.org/2000/svg">
<path d="M7.9999 1.28564C9.47753 1.28564 10.8946 1.87263 11.9395 2.91748C12.9843 3.96232 13.5713 5.37944 13.5713 6.85707C13.5713 9.21136 11.917 11.7771 8.65132 14.5816C8.46974 14.7376 8.23822 14.8233 7.99883 14.8231C7.75944 14.8229 7.52807 14.7368 7.34675 14.5805L7.13075 14.3931C4.00961 11.6616 2.42847 9.15879 2.42847 6.85707C2.42847 5.37944 3.01546 3.96232 4.0603 2.91748C5.10515 1.87263 6.52226 1.28564 7.9999 1.28564ZM7.9999 4.71422C7.43157 4.71422 6.88653 4.93998 6.48467 5.34184C6.0828 5.74371 5.85704 6.28875 5.85704 6.85707C5.85704 7.42539 6.0828 7.97044 6.48467 8.3723C6.88653 8.77417 7.43157 8.99993 7.9999 8.99993C8.56822 8.99993 9.11326 8.77417 9.51513 8.3723C9.91699 7.97044 10.1428 7.42539 10.1428 6.85707C10.1428 6.28875 9.91699 5.74371 9.51513 5.34184C9.11326 4.93998 8.56822 4.71422 7.9999 4.71422Z" fill="#FFBA08"/>
</svg>
