<svg width="261" height="140" viewBox="0 0 261 140" fill="none" xmlns="http://www.w3.org/2000/svg">
<rect width="122" height="140" rx="12" fill="#F6F6F6"/>
<path d="M75.3154 33.8699H63.4244V31.1767C65.9887 30.199 67.8116 27.7187 67.8116 24.8112C67.8112 21.0496 64.762 18 61 18C57.2384 18 54.1888 21.0496 54.1888 24.8112C54.1888 27.7183 56.0113 30.199 58.5756 31.1767V33.8699H46.685L39 62H83L75.3154 33.8699ZM58.5756 28.4997C57.377 27.7108 56.5859 26.3538 56.5859 24.8116C56.5859 22.3736 58.5624 20.3971 61 20.3971C63.438 20.3971 65.4145 22.3736 65.4145 24.8116C65.4145 26.3538 64.623 27.7108 63.4244 28.4997V26.9602H58.5756V28.4997Z" fill="#B9BCC2"/>
<path d="M37 49H85" stroke="#F6F6F6" stroke-width="3"/>
<path d="M58.662 56.162L61.379 59H60.191L57.683 56.393V59H56.726V53.5H57.683V55.931L60.059 53.5H61.291L58.662 56.162ZM62.269 53.5H65.877V54.424H63.226V59H62.269V53.5Z" fill="#F6F6F6"/>
<path d="M51.096 83.6H52.14V92H51.3V84.872L48.36 89.792H48.24L45.3 84.872V92H44.46V83.6H45.504L48.3 88.28L51.096 83.6ZM59.0977 87.176V86H59.8897V92H59.0977V90.824C58.5457 91.704 57.7377 92.144 56.6737 92.144C55.8177 92.144 55.0857 91.84 54.4777 91.232C53.8777 90.624 53.5777 89.88 53.5777 89C53.5777 88.12 53.8777 87.376 54.4777 86.768C55.0857 86.16 55.8177 85.856 56.6737 85.856C57.7377 85.856 58.5457 86.296 59.0977 87.176ZM55.0537 90.692C55.5097 91.148 56.0697 91.376 56.7337 91.376C57.3977 91.376 57.9577 91.148 58.4137 90.692C58.8697 90.22 59.0977 89.656 59.0977 89C59.0977 88.336 58.8697 87.776 58.4137 87.32C57.9577 86.856 57.3977 86.624 56.7337 86.624C56.0697 86.624 55.5097 86.856 55.0537 87.32C54.5977 87.776 54.3697 88.336 54.3697 89C54.3697 89.656 54.5977 90.22 55.0537 90.692ZM64.3626 92.144C63.4586 92.144 62.7066 91.844 62.1066 91.244C61.5066 90.628 61.2066 89.88 61.2066 89C61.2066 88.112 61.5066 87.368 62.1066 86.768C62.7066 86.16 63.4586 85.856 64.3626 85.856C64.9546 85.856 65.4866 86 65.9586 86.288C66.4306 86.568 66.7746 86.948 66.9906 87.428L66.3426 87.8C66.1826 87.44 65.9226 87.156 65.5626 86.948C65.2106 86.732 64.8106 86.624 64.3626 86.624C63.6986 86.624 63.1386 86.856 62.6826 87.32C62.2266 87.776 61.9986 88.336 61.9986 89C61.9986 89.656 62.2266 90.22 62.6826 90.692C63.1386 91.148 63.6986 91.376 64.3626 91.376C64.8026 91.376 65.1986 91.272 65.5506 91.064C65.9106 90.856 66.1906 90.568 66.3906 90.2L67.0506 90.584C66.8026 91.064 66.4386 91.444 65.9586 91.724C65.4786 92.004 64.9466 92.144 64.3626 92.144ZM70.9251 92.144C70.0211 92.144 69.2691 91.844 68.6691 91.244C68.0691 90.628 67.7691 89.88 67.7691 89C67.7691 88.112 68.0691 87.368 68.6691 86.768C69.2691 86.16 70.0211 85.856 70.9251 85.856C71.5171 85.856 72.0491 86 72.5211 86.288C72.9931 86.568 73.3371 86.948 73.5531 87.428L72.9051 87.8C72.7451 87.44 72.4851 87.156 72.1251 86.948C71.7731 86.732 71.3731 86.624 70.9251 86.624C70.2611 86.624 69.7011 86.856 69.2451 87.32C68.7891 87.776 68.5611 88.336 68.5611 89C68.5611 89.656 68.7891 90.22 69.2451 90.692C69.7011 91.148 70.2611 91.376 70.9251 91.376C71.3651 91.376 71.7611 91.272 72.1131 91.064C72.4731 90.856 72.7531 90.568 72.9531 90.2L73.6131 90.584C73.3651 91.064 73.0011 91.444 72.5211 91.724C72.0411 92.004 71.5091 92.144 70.9251 92.144ZM79.8516 87.176V86H80.6436V92H79.8516V90.824C79.2996 91.704 78.4916 92.144 77.4276 92.144C76.5716 92.144 75.8396 91.84 75.2316 91.232C74.6316 90.624 74.3316 89.88 74.3316 89C74.3316 88.12 74.6316 87.376 75.2316 86.768C75.8396 86.16 76.5716 85.856 77.4276 85.856C78.4916 85.856 79.2996 86.296 79.8516 87.176ZM75.8076 90.692C76.2636 91.148 76.8236 91.376 77.4876 91.376C78.1516 91.376 78.7116 91.148 79.1676 90.692C79.6236 90.22 79.8516 89.656 79.8516 89C79.8516 88.336 79.6236 87.776 79.1676 87.32C78.7116 86.856 78.1516 86.624 77.4876 86.624C76.8236 86.624 76.2636 86.856 75.8076 87.32C75.3516 87.776 75.1236 88.336 75.1236 89C75.1236 89.656 75.3516 90.22 75.8076 90.692Z" fill="#141414" fill-opacity="0.7"/>
<path d="M35.024 106.314H36.86C38.048 106.314 39.05 106.668 39.866 107.376C40.694 108.084 41.108 109.05 41.108 110.274C41.108 111.51 40.688 112.476 39.848 113.172C38.996 113.88 37.976 114.234 36.788 114.234C35.804 114.234 34.934 114 34.178 113.532C33.434 113.052 32.918 112.386 32.63 111.534L34.052 110.724C34.22 111.324 34.544 111.786 35.024 112.11C35.504 112.434 36.092 112.596 36.788 112.596C37.592 112.596 38.234 112.392 38.714 111.984C39.206 111.564 39.452 110.994 39.452 110.274C39.452 109.554 39.206 108.984 38.714 108.564C38.234 108.144 37.604 107.934 36.824 107.934H33.26L33.728 101.4H40.622V102.966H35.24L35.024 106.314ZM51.1154 105.756C52.3754 105.756 53.4134 106.152 54.2294 106.944C55.0454 107.724 55.4534 108.738 55.4534 109.986C55.4534 111.234 55.0454 112.254 54.2294 113.046C53.4134 113.838 52.3754 114.234 51.1154 114.234C49.8314 114.234 48.7874 113.838 47.9834 113.046C47.1794 112.254 46.7774 111.234 46.7774 109.986C46.7774 109.002 47.0294 108.162 47.5334 107.466L51.5834 101.4H53.4914L50.5214 105.792C50.8814 105.768 51.0794 105.756 51.1154 105.756ZM51.1154 107.358C50.3114 107.358 49.6634 107.598 49.1714 108.078C48.6794 108.558 48.4334 109.194 48.4334 109.986C48.4334 110.778 48.6794 111.42 49.1714 111.912C49.6754 112.392 50.3234 112.632 51.1154 112.632C51.9074 112.632 52.5494 112.392 53.0414 111.912C53.5454 111.42 53.7974 110.778 53.7974 109.986C53.7974 109.194 53.5454 108.558 53.0414 108.078C52.5494 107.598 51.9074 107.358 51.1154 107.358ZM58.6314 106.314H60.4674C61.6554 106.314 62.6574 106.668 63.4734 107.376C64.3014 108.084 64.7154 109.05 64.7154 110.274C64.7154 111.51 64.2954 112.476 63.4554 113.172C62.6034 113.88 61.5834 114.234 60.3954 114.234C59.4114 114.234 58.5414 114 57.7854 113.532C57.0414 113.052 56.5254 112.386 56.2374 111.534L57.6594 110.724C57.8274 111.324 58.1514 111.786 58.6314 112.11C59.1114 112.434 59.6994 112.596 60.3954 112.596C61.1994 112.596 61.8414 112.392 62.3214 111.984C62.8134 111.564 63.0594 110.994 63.0594 110.274C63.0594 109.554 62.8134 108.984 62.3214 108.564C61.8414 108.144 61.2114 107.934 60.4314 107.934H56.8674L57.3354 101.4H64.2294V102.966H58.8474L58.6314 106.314ZM74.3165 112.452C73.4765 113.64 72.2825 114.234 70.7345 114.234C69.1865 114.234 67.9925 113.64 67.1525 112.452C66.3005 111.252 65.8745 109.668 65.8745 107.7C65.8745 105.732 66.3005 104.148 67.1525 102.948C67.9925 101.76 69.1865 101.166 70.7345 101.166C72.2825 101.166 73.4765 101.76 74.3165 102.948C75.1685 104.148 75.5945 105.732 75.5945 107.7C75.5945 109.668 75.1685 111.252 74.3165 112.452ZM67.5485 107.7C67.5485 109.26 67.8245 110.466 68.3765 111.318C68.9285 112.17 69.7145 112.596 70.7345 112.596C71.7545 112.596 72.5405 112.17 73.0925 111.318C73.6565 110.466 73.9385 109.26 73.9385 107.7C73.9385 106.14 73.6565 104.934 73.0925 104.082C72.5405 103.218 71.7545 102.786 70.7345 102.786C69.7145 102.786 68.9285 103.212 68.3765 104.064C67.8245 104.916 67.5485 106.128 67.5485 107.7ZM80.7583 109.356L85.2043 114H83.2603L79.1563 109.734V114H77.5903V105H79.1563V108.978L83.0443 105H85.0603L80.7583 109.356ZM86.6607 105H92.5647V106.512H88.2267V114H86.6607V105Z" fill="#141414"/>
<rect x="139" width="122" height="140" rx="12" fill="#F6F6F6"/>
<path d="M181 25C181 23.8954 181.895 23 183 23H219C220.105 23 221 23.8954 221 25V51C221 57.6274 215.627 63 209 63H193C186.373 63 181 57.6274 181 51V25Z" fill="#B9BCC2"/>
<path d="M152.46 83.6H157.14V84.392H153.3V92H152.46V83.6ZM157.171 86H161.467V92H160.675V86.768H157.963V89.444C157.963 90.444 157.771 91.132 157.387 91.508C157.011 91.884 156.491 92.048 155.827 92V91.256C156.291 91.304 156.631 91.192 156.847 90.92C157.063 90.648 157.171 90.156 157.171 89.444V86ZM165.521 91.028L167.465 86H168.305L165.737 92.552C165.497 93.16 165.161 93.628 164.729 93.956C164.305 94.292 163.833 94.44 163.313 94.4V93.656C164.033 93.744 164.581 93.328 164.957 92.408L165.113 92.036L162.425 86H163.265L165.521 91.028ZM171.692 92.144C170.836 92.144 170.116 91.86 169.532 91.292C168.956 90.716 168.668 89.972 168.668 89.06C168.668 88.036 168.82 87.252 169.124 86.708C169.428 86.156 170.044 85.656 170.972 85.208C171.268 85.072 171.5 84.968 171.668 84.896C171.948 84.784 172.168 84.688 172.328 84.608C173.024 84.288 173.376 83.892 173.384 83.42L174.008 83.78C173.968 83.98 173.904 84.16 173.816 84.32C173.712 84.496 173.608 84.636 173.504 84.74C173.408 84.844 173.256 84.956 173.048 85.076C172.912 85.156 172.748 85.244 172.556 85.34L171.956 85.592L171.392 85.832C170.84 86.072 170.428 86.324 170.156 86.588C169.892 86.844 169.704 87.18 169.592 87.596C169.848 87.252 170.184 86.992 170.6 86.816C171.016 86.632 171.436 86.54 171.86 86.54C172.66 86.54 173.32 86.804 173.84 87.332C174.368 87.852 174.632 88.52 174.632 89.336C174.632 90.144 174.352 90.816 173.792 91.352C173.24 91.88 172.54 92.144 171.692 92.144ZM170.132 90.764C170.548 91.156 171.068 91.352 171.692 91.352C172.316 91.352 172.828 91.164 173.228 90.788C173.636 90.404 173.84 89.92 173.84 89.336C173.84 88.744 173.648 88.26 173.264 87.884C172.888 87.5 172.384 87.308 171.752 87.308C171.184 87.308 170.668 87.488 170.204 87.848C169.74 88.192 169.508 88.664 169.508 89.264C169.508 89.872 169.716 90.372 170.132 90.764ZM176.628 90.62L180.204 86H180.876V92H180.084V87.38L176.508 92H175.836V86H176.628V90.62ZM186.799 88.616V86H187.591V92H186.799V89.384H183.343V92H182.551V86H183.343V88.616H186.799ZM194.426 87.176V86H195.218V92H194.426V90.824C193.874 91.704 193.066 92.144 192.002 92.144C191.146 92.144 190.414 91.84 189.806 91.232C189.206 90.624 188.906 89.88 188.906 89C188.906 88.12 189.206 87.376 189.806 86.768C190.414 86.16 191.146 85.856 192.002 85.856C193.066 85.856 193.874 86.296 194.426 87.176ZM190.382 90.692C190.838 91.148 191.398 91.376 192.062 91.376C192.726 91.376 193.286 91.148 193.742 90.692C194.198 90.22 194.426 89.656 194.426 89C194.426 88.336 194.198 87.776 193.742 87.32C193.286 86.856 192.726 86.624 192.062 86.624C191.398 86.624 190.838 86.856 190.382 87.32C189.926 87.776 189.698 88.336 189.698 89C189.698 89.656 189.926 90.22 190.382 90.692ZM199.895 86H204.935V92H204.143V86.768H200.687V92H199.895V86ZM209.826 85.856C210.682 85.856 211.41 86.16 212.01 86.768C212.618 87.376 212.922 88.12 212.922 89C212.922 89.88 212.618 90.624 212.01 91.232C211.41 91.84 210.682 92.144 209.826 92.144C208.762 92.144 207.954 91.704 207.402 90.824V94.4H206.61V86H207.402V87.176C207.954 86.296 208.762 85.856 209.826 85.856ZM208.086 90.692C208.542 91.148 209.102 91.376 209.766 91.376C210.43 91.376 210.99 91.148 211.446 90.692C211.902 90.22 212.13 89.656 212.13 89C212.13 88.336 211.902 87.776 211.446 87.32C210.99 86.856 210.43 86.624 209.766 86.624C209.102 86.624 208.542 86.856 208.086 87.32C207.63 87.776 207.402 88.336 207.402 89C207.402 89.656 207.63 90.22 208.086 90.692ZM219.266 91.244C218.65 91.844 217.906 92.144 217.034 92.144C216.146 92.144 215.398 91.844 214.79 91.244C214.182 90.636 213.878 89.888 213.878 89C213.878 88.112 214.182 87.368 214.79 86.768C215.398 86.16 216.146 85.856 217.034 85.856C217.914 85.856 218.658 86.16 219.266 86.768C219.882 87.368 220.19 88.112 220.19 89C220.19 89.88 219.882 90.628 219.266 91.244ZM215.354 90.692C215.81 91.148 216.37 91.376 217.034 91.376C217.698 91.376 218.258 91.148 218.714 90.692C219.17 90.22 219.398 89.656 219.398 89C219.398 88.336 219.17 87.776 218.714 87.32C218.258 86.856 217.698 86.624 217.034 86.624C216.37 86.624 215.81 86.856 215.354 87.32C214.898 87.776 214.67 88.336 214.67 89C214.67 89.656 214.898 90.22 215.354 90.692ZM224.732 85.856C225.588 85.856 226.316 86.16 226.916 86.768C227.524 87.376 227.828 88.12 227.828 89C227.828 89.88 227.524 90.624 226.916 91.232C226.316 91.84 225.588 92.144 224.732 92.144C223.668 92.144 222.86 91.704 222.308 90.824V94.4H221.516V86H222.308V87.176C222.86 86.296 223.668 85.856 224.732 85.856ZM222.992 90.692C223.448 91.148 224.008 91.376 224.672 91.376C225.336 91.376 225.896 91.148 226.352 90.692C226.808 90.22 227.036 89.656 227.036 89C227.036 88.336 226.808 87.776 226.352 87.32C225.896 86.856 225.336 86.624 224.672 86.624C224.008 86.624 223.448 86.856 222.992 87.32C222.536 87.776 222.308 88.336 222.308 89C222.308 89.656 222.536 90.22 222.992 90.692ZM231.917 85.856C232.813 85.856 233.529 86.172 234.065 86.804C234.617 87.428 234.893 88.168 234.893 89.024C234.893 89.064 234.885 89.188 234.869 89.396H229.601C229.681 89.996 229.937 90.476 230.369 90.836C230.801 91.196 231.341 91.376 231.989 91.376C232.901 91.376 233.545 91.036 233.921 90.356L234.617 90.764C234.353 91.196 233.989 91.536 233.525 91.784C233.069 92.024 232.553 92.144 231.977 92.144C231.033 92.144 230.265 91.848 229.673 91.256C229.081 90.664 228.785 89.912 228.785 89C228.785 88.096 229.077 87.348 229.661 86.756C230.245 86.156 230.997 85.856 231.917 85.856ZM231.917 86.624C231.293 86.624 230.769 86.808 230.345 87.176C229.929 87.544 229.681 88.028 229.601 88.628H234.077C233.989 87.988 233.745 87.496 233.345 87.152C232.929 86.8 232.453 86.624 231.917 86.624ZM239.131 88.916C239.827 89.18 240.175 89.66 240.175 90.356C240.175 90.86 239.979 91.284 239.587 91.628C239.211 91.972 238.659 92.144 237.931 92.144C236.715 92.144 235.923 91.664 235.555 90.704L236.227 90.308C236.483 91.02 237.051 91.376 237.931 91.376C238.387 91.376 238.743 91.28 238.999 91.088C239.255 90.888 239.383 90.628 239.383 90.308C239.383 90.02 239.279 89.792 239.071 89.624C238.863 89.448 238.583 89.36 238.231 89.36H237.355V88.592H237.991C238.335 88.592 238.603 88.508 238.795 88.34C238.995 88.164 239.095 87.924 239.095 87.62C239.095 87.332 238.975 87.096 238.735 86.912C238.503 86.72 238.195 86.624 237.811 86.624C237.067 86.624 236.567 86.924 236.311 87.524L235.651 87.14C236.051 86.284 236.771 85.856 237.811 85.856C238.451 85.856 238.955 86.024 239.323 86.36C239.699 86.688 239.887 87.092 239.887 87.572C239.887 88.188 239.635 88.636 239.131 88.916ZM246.539 87.176V86H247.331V92H246.539V90.824C245.987 91.704 245.179 92.144 244.115 92.144C243.259 92.144 242.527 91.84 241.919 91.232C241.319 90.624 241.019 89.88 241.019 89C241.019 88.12 241.319 87.376 241.919 86.768C242.527 86.16 243.259 85.856 244.115 85.856C245.179 85.856 245.987 86.296 246.539 87.176ZM242.495 90.692C242.951 91.148 243.511 91.376 244.175 91.376C244.839 91.376 245.399 91.148 245.855 90.692C246.311 90.22 246.539 89.656 246.539 89C246.539 88.336 246.311 87.776 245.855 87.32C245.399 86.856 244.839 86.624 244.175 86.624C243.511 86.624 242.951 86.856 242.495 87.32C242.039 87.776 241.811 88.336 241.811 89C241.811 89.656 242.039 90.22 242.495 90.692Z" fill="#141414" fill-opacity="0.7"/>
<path d="M167.252 102.552L170.564 101.4H172.004V114H170.348V103.2L167.666 103.992L167.252 102.552ZM180.94 106.314H182.776C183.964 106.314 184.966 106.668 185.782 107.376C186.61 108.084 187.024 109.05 187.024 110.274C187.024 111.51 186.604 112.476 185.764 113.172C184.912 113.88 183.892 114.234 182.704 114.234C181.72 114.234 180.85 114 180.094 113.532C179.35 113.052 178.834 112.386 178.546 111.534L179.968 110.724C180.136 111.324 180.46 111.786 180.94 112.11C181.42 112.434 182.008 112.596 182.704 112.596C183.508 112.596 184.15 112.392 184.63 111.984C185.122 111.564 185.368 110.994 185.368 110.274C185.368 109.554 185.122 108.984 184.63 108.564C184.15 108.144 183.52 107.934 182.74 107.934H179.176L179.644 101.4H186.538V102.966H181.156L180.94 106.314ZM196.625 112.452C195.785 113.64 194.591 114.234 193.043 114.234C191.495 114.234 190.301 113.64 189.461 112.452C188.609 111.252 188.183 109.668 188.183 107.7C188.183 105.732 188.609 104.148 189.461 102.948C190.301 101.76 191.495 101.166 193.043 101.166C194.591 101.166 195.785 101.76 196.625 102.948C197.477 104.148 197.903 105.732 197.903 107.7C197.903 109.668 197.477 111.252 196.625 112.452ZM189.857 107.7C189.857 109.26 190.133 110.466 190.685 111.318C191.237 112.17 192.023 112.596 193.043 112.596C194.063 112.596 194.849 112.17 195.401 111.318C195.965 110.466 196.247 109.26 196.247 107.7C196.247 106.14 195.965 104.934 195.401 104.082C194.849 103.218 194.063 102.786 193.043 102.786C192.023 102.786 191.237 103.212 190.685 104.064C190.133 104.916 189.857 106.128 189.857 107.7ZM207.963 112.452C207.123 113.64 205.929 114.234 204.381 114.234C202.833 114.234 201.639 113.64 200.799 112.452C199.947 111.252 199.521 109.668 199.521 107.7C199.521 105.732 199.947 104.148 200.799 102.948C201.639 101.76 202.833 101.166 204.381 101.166C205.929 101.166 207.123 101.76 207.963 102.948C208.815 104.148 209.241 105.732 209.241 107.7C209.241 109.668 208.815 111.252 207.963 112.452ZM201.195 107.7C201.195 109.26 201.471 110.466 202.023 111.318C202.575 112.17 203.361 112.596 204.381 112.596C205.401 112.596 206.187 112.17 206.739 111.318C207.303 110.466 207.585 109.26 207.585 107.7C207.585 106.14 207.303 104.934 206.739 104.082C206.187 103.218 205.401 102.786 204.381 102.786C203.361 102.786 202.575 103.212 202.023 104.064C201.471 104.916 201.195 106.128 201.195 107.7ZM218.563 105H220.237V114H218.707V107.466L215.845 112.074H215.647L212.785 107.466V114H211.237V105H212.911L215.737 109.554L218.563 105ZM229.953 105H231.627V114H230.097V107.466L227.235 112.074H227.037L224.175 107.466V114H222.627V105H224.301L227.127 109.554L229.953 105Z" fill="#141414"/>
<g clip-path="url(#clip0_30_22625)">
<path fill-rule="evenodd" clip-rule="evenodd" d="M195.594 38.5406C195.457 38.3728 195.292 38.2382 195.108 38.1449C194.924 38.0516 194.726 38.0014 194.525 37.9974C194.323 37.9933 194.124 38.0355 193.937 38.1214C193.751 38.2073 193.581 38.3351 193.439 38.4972C193.297 38.6594 193.184 38.8525 193.109 39.0652C193.034 39.2778 192.997 39.5055 193 39.7348C193.004 39.9641 193.048 40.1902 193.13 40.3997C193.212 40.6091 193.33 40.7976 193.477 40.954L199.969 48.3558L201.028 49.5625L202.087 48.3558L208.579 40.9563C208.852 40.6343 209.003 40.2031 209 39.7554C208.997 39.3076 208.839 38.8793 208.562 38.5625C208.284 38.2458 207.908 38.066 207.515 38.0619C207.123 38.0578 206.744 38.2297 206.461 38.5406L202.526 43.0258L202.526 19.3951C202.526 18.9422 202.368 18.5079 202.087 18.1876C201.806 17.8674 201.425 17.6875 201.028 17.6875C200.631 17.6875 200.249 17.8674 199.968 18.1876C199.688 18.5079 199.53 18.9422 199.53 19.3951L199.53 43.0258L195.594 38.5406Z" fill="#F6F6F6"/>
</g>
<path d="M198.666 53.357C199.289 53.357 199.788 53.5587 200.162 53.962C200.543 54.3653 200.734 54.9043 200.734 55.579V59H199.777V55.612C199.777 55.194 199.667 54.8677 199.447 54.633C199.234 54.391 198.941 54.27 198.567 54.27C198.142 54.27 197.808 54.413 197.566 54.699C197.331 54.9777 197.214 55.392 197.214 55.942V59H196.257V55.612C196.257 55.194 196.151 54.8677 195.938 54.633C195.733 54.391 195.45 54.27 195.091 54.27C194.673 54.27 194.332 54.4167 194.068 54.71C193.811 54.996 193.683 55.4067 193.683 55.942V59H192.726V53.5H193.683V54.237C194.057 53.6503 194.603 53.357 195.322 53.357C196.063 53.357 196.602 53.6687 196.939 54.292C197.32 53.6687 197.896 53.357 198.666 53.357ZM208.001 53.357C208.624 53.357 209.123 53.5587 209.497 53.962C209.878 54.3653 210.069 54.9043 210.069 55.579V59H209.112V55.612C209.112 55.194 209.002 54.8677 208.782 54.633C208.569 54.391 208.276 54.27 207.902 54.27C207.477 54.27 207.143 54.413 206.901 54.699C206.666 54.9777 206.549 55.392 206.549 55.942V59H205.592V55.612C205.592 55.194 205.486 54.8677 205.273 54.633C205.068 54.391 204.785 54.27 204.426 54.27C204.008 54.27 203.667 54.4167 203.403 54.71C203.146 54.996 203.018 55.4067 203.018 55.942V59H202.061V53.5H203.018V54.237C203.392 53.6503 203.938 53.357 204.657 53.357C205.398 53.357 205.937 53.6687 206.274 54.292C206.655 53.6687 207.231 53.357 208.001 53.357Z" fill="#F6F6F6"/>
<defs>
<clipPath id="clip0_30_22625">
<rect width="31" height="36" fill="white" transform="translate(217 57) rotate(-180)"/>
</clipPath>
</defs>
</svg>
