<svg width="181" height="40" viewBox="0 0 181 40" fill="none" xmlns="http://www.w3.org/2000/svg">
<path d="M159.522 8.15279C159.825 8.45616 159.826 8.94415 159.524 9.2456L156.552 12.218C156.251 12.5185 155.761 12.5179 155.458 12.2146L155.002 11.7585C154.699 11.4551 154.699 10.9662 154.999 10.6657L157.972 7.69326C158.273 7.39181 158.762 7.39336 159.066 7.69674L159.522 8.15279Z" fill="#2F2F2F"/>
<path d="M167.754 5.83652C170.589 8.67132 171.349 12.7514 169.991 16.0795L164.298 10.3863C164.017 10.1055 163.561 10.1031 163.281 10.383L159.633 14.0308C159.354 14.3097 159.354 14.7663 159.636 15.048L165.329 20.7412C161.999 22.1013 157.919 21.3412 155.084 18.5064C154.62 18.0424 154.258 17.5121 153.861 17.0228C152.757 15.6644 151.021 15.3122 149.533 15.3075C148.044 15.3028 118.876 15.2091 118.876 15.2091C116.355 15.2021 114.305 13.1513 114.298 10.6309C114.289 8.11042 116.325 6.07364 118.846 6.08264L152.778 6.18952C153.181 6.1908 153.871 6.19201 154.704 5.45532C156.2 4.1326 157.91 3.22884 159.794 3.00311C162.574 2.67026 165.543 3.62523 167.754 5.83652ZM122.537 9.55836C121.929 9.55545 121.439 10.0458 121.442 10.6536C121.444 11.2604 121.937 11.7558 122.545 11.7568L146.738 11.8337C147.345 11.8356 147.836 11.3443 147.833 10.7384C147.831 10.1317 147.338 9.63817 146.729 9.63624L122.537 9.55836ZM157.923 6.50926L153.816 10.6161C153.515 10.9175 153.516 11.4065 153.819 11.7089L155.509 13.3991C155.812 13.7025 156.3 13.7031 156.602 13.4016L160.708 9.29579C161.009 8.99433 161.008 8.50536 160.704 8.20199L159.015 6.51273C158.714 6.21133 158.224 6.20879 157.923 6.50926Z" fill="#2F2F2F"/>
<path d="M166.628 27.9171L162.833 30.027L162.833 34.247L166.628 36.3569L170.423 34.247L170.423 30.027L166.628 27.9171ZM166.628 30.1742C167.731 30.1742 168.625 31.053 168.625 32.137C168.625 33.221 167.731 34.0998 166.628 34.0998C165.525 34.0998 164.631 33.221 164.631 32.137C164.631 31.053 165.525 30.1742 166.628 30.1742Z" fill="#A8A8A8"/>
<path d="M176.906 28.3912L173.111 30.5011L173.111 34.7211L176.906 36.8311L180.7 34.7211L180.7 30.5011L176.906 28.3912ZM176.906 30.6484C178.009 30.6484 178.903 31.5271 178.903 32.6111C178.903 33.6951 178.009 34.5739 176.906 34.5739C175.803 34.5739 174.908 33.6951 174.908 32.6111C174.908 31.5271 175.803 30.6484 176.906 30.6484Z" fill="#A8A8A8"/>
<path d="M175.733 21.2403L172.008 19.0089L168.354 21.1188L168.424 25.4602L172.149 27.6917L175.803 25.5817L175.733 21.2403ZM173.778 22.3689C174.33 23.3242 174.016 24.538 173.077 25.08C172.138 25.622 170.93 25.2869 170.379 24.3317C169.827 23.3764 170.141 22.1626 171.08 21.6206C172.019 21.0786 173.227 21.4136 173.778 22.3689Z" fill="#A8A8A8"/>
<path d="M7.39329 34.2786H4.2366L6.86371 21.9737H2.3779L2.92824 19.2947H15.0566L14.5062 21.9737H10.0204L7.39329 34.2786ZM15.3992 27.4979H20.2381C20.2485 27.4252 20.2588 27.2902 20.2588 27.1864C20.2588 26.0857 19.5527 25.1408 18.1509 25.1408C16.7699 25.1408 15.7523 26.1376 15.3992 27.4979ZM17.2579 34.5278C14.1532 34.5278 12.3256 32.5548 12.3256 29.502C12.3256 25.7431 14.7347 22.8667 18.2548 22.8667C21.1311 22.8667 23.0417 24.7254 23.0417 27.6433C23.0417 28.1833 23.0002 28.8478 22.886 29.3774H15.0981C15.0877 29.502 15.0773 29.6162 15.0773 29.7304C15.0773 31.205 15.9599 32.2226 17.3721 32.2226C18.5559 32.2226 19.4178 31.6203 19.7604 30.7273H22.5537C21.9826 32.9494 19.9473 34.5278 17.2579 34.5278ZM29.0332 30.6027H28.9709L26.1776 34.2786H22.8444L27.5379 28.6194L25.2327 23.1159H28.3894L29.7808 26.7918H29.8431L32.6364 23.1159H35.9592L31.2657 28.7751L33.5709 34.2786H30.4142L29.0332 30.6027ZM95.4481 24.7877C95.4481 24.7254 95.4481 24.6528 95.4378 24.4451C95.3339 22.846 94.0256 21.7661 92.3018 21.7661C89.4982 21.7661 87.5564 24.3516 87.5564 27.9652C87.5564 30.3327 88.8233 31.7864 90.8896 31.7864C92.6134 31.7864 94.0152 30.7896 94.5863 29.1593H97.6703C96.9953 32.3991 94.2332 34.5278 90.7235 34.5278C86.8296 34.5278 84.3271 32.0253 84.3271 28.1417C84.3271 22.7629 87.6395 19.0455 92.5407 19.0455C95.9777 19.0455 98.4491 21.1638 98.5425 24.2893C98.5529 24.5074 98.5425 24.6528 98.5218 24.7877H95.4481ZM102.229 27.4979H107.068C107.078 27.4252 107.088 27.2902 107.088 27.1864C107.088 26.0857 106.382 25.1408 104.98 25.1408C103.599 25.1408 102.582 26.1376 102.229 27.4979ZM104.087 34.5278C100.983 34.5278 99.1552 32.5548 99.1552 29.502C99.1552 25.7431 101.564 22.8667 105.084 22.8667C107.961 22.8667 109.871 24.7254 109.871 27.6433C109.871 28.1833 109.83 28.8478 109.716 29.3774H101.928C101.917 29.502 101.907 29.6162 101.907 29.7304C101.907 31.205 102.79 32.2226 104.202 32.2226C105.385 32.2226 106.247 31.6203 106.59 30.7273H109.383C108.812 32.9494 106.777 34.5278 104.087 34.5278ZM116.662 31.9526C118.376 31.9526 119.715 30.1977 119.715 27.8717C119.715 26.3246 118.905 25.3692 117.597 25.3692C115.769 25.3692 114.482 27.3214 114.482 29.5332C114.482 30.9661 115.344 31.9526 116.662 31.9526ZM112.561 37.9233H109.612L112.758 23.1159H115.655L115.292 24.7774H115.354C116.122 23.6144 117.42 22.9394 118.833 22.9394C121.242 22.9394 122.726 24.6735 122.726 27.4252C122.726 31.4645 120.359 34.4551 117.202 34.4551C115.551 34.4551 114.284 33.5725 113.848 32.181H113.786L112.561 37.9233ZM123.225 34.2786L125.592 23.1159H130.899C133.038 23.1159 134.315 24.0713 134.315 25.6496C134.315 26.9891 133.245 28.0898 131.74 28.3079L131.708 28.4429C132.996 28.5986 133.806 29.4189 133.806 30.5819C133.806 32.8041 131.906 34.2786 129.04 34.2786H123.225ZM129.05 29.4189H127.192L126.568 32.2953H128.604C129.902 32.2953 130.743 31.6307 130.743 30.6546C130.743 29.8239 130.192 29.4189 129.05 29.4189ZM129.933 25.0577H128.116L127.565 27.6329H129.299C130.514 27.6329 131.324 27.0307 131.324 26.1169C131.324 25.4004 130.867 25.0577 129.933 25.0577ZM137.762 34.2786H134.834L137.202 23.1159H140.119L138.645 29.9381H138.79L144.751 23.1159H147.679L145.311 34.2786H142.383L143.878 27.3526H143.733L137.762 34.2786ZM154.241 22.8667C157.149 22.8667 158.966 24.6943 158.966 26.906C158.966 27.176 158.966 27.1968 158.966 27.2487H156.121C156.1 26.1792 155.363 25.3796 154.127 25.3796C152.403 25.3796 151.199 27.1033 151.199 29.5643C151.199 31.07 151.998 32.0045 153.224 32.0045C154.376 32.0045 155.228 31.3192 155.56 30.2185H158.416C157.98 32.7418 155.84 34.5278 153.12 34.5278C150.036 34.5278 148.219 32.5756 148.219 29.6889C148.219 25.6392 150.607 22.8667 154.241 22.8667Z" fill="#2F2F2F"/>
<path d="M42.1168 34.2786H38.9601L41.5872 21.9737H37.1014L37.6518 19.2947H49.7801L49.2297 21.9737H44.7439L42.1168 34.2786ZM53.674 31.9526C55.3873 31.9526 56.7269 30.1977 56.7269 27.8717C56.7269 26.3246 55.9169 25.3692 54.6086 25.3692C52.781 25.3692 51.4934 27.3214 51.4934 29.5332C51.4934 30.9661 52.3553 31.9526 53.674 31.9526ZM49.5724 37.9233H46.6234L49.7697 23.1159H52.6668L52.3033 24.7774H52.3656C53.134 23.6144 54.432 22.9394 55.8442 22.9394C58.2533 22.9394 59.7382 24.6735 59.7382 27.4252C59.7382 31.4645 57.3706 34.4551 54.214 34.4551C52.5629 34.4551 51.2961 33.5725 50.86 32.181H50.7977L49.5724 37.9233ZM65.0235 32.233C66.2488 32.233 67.3184 31.4645 67.5676 30.3846L67.7752 29.4397L65.4181 29.5332C64.1409 29.5747 63.3621 30.125 63.3621 30.9765C63.3621 31.7345 64.0371 32.233 65.0235 32.233ZM63.8294 34.4551C61.9499 34.4551 60.465 33.1675 60.465 31.3919C60.465 29.1386 62.2926 27.7783 65.3039 27.6745L68.1698 27.5706L68.3048 26.8957C68.3464 26.7191 68.3464 26.6049 68.3464 26.4803C68.3464 25.7015 67.6922 25.2031 66.5811 25.2031C65.4597 25.2031 64.7432 25.7015 64.5355 26.4907H61.7319C62.1264 24.2997 64.0786 22.8667 66.7992 22.8667C69.4678 22.8667 71.2642 24.2166 71.2642 26.1792C71.2642 26.5011 71.2227 26.8645 71.1811 27.1033L69.6547 34.2786H66.7888L67.0795 32.9391H67.0172C66.3734 33.8528 65.2104 34.4551 63.8294 34.4551ZM84.1194 23.1159L78.4914 28.5571L81.8765 34.2786H78.5329L75.7189 29.5124H75.6462L74.6286 34.2786H71.6588L74.0263 23.1159H76.9961L76.0408 27.5914H76.1031L80.6616 23.1159H84.1194Z" fill="#EBB220"/>
</svg>
