<svg width="40" height="40" viewBox="0 0 40 40" fill="none" xmlns="http://www.w3.org/2000/svg">
<circle cx="20" cy="20" r="20" fill="#B9BCC2"/>
<circle cx="20" cy="20" r="14.5" fill="#B9BCC2" stroke="#F6F6F6" stroke-width="3"/>
<path d="M20.94 18.74C21.5633 18.74 22.062 18.9417 22.436 19.345C22.8173 19.7483 23.008 20.2873 23.008 20.962V24.383H22.051V20.995C22.051 20.577 21.941 20.2507 21.721 20.016C21.5083 19.774 21.215 19.653 20.841 19.653C20.4157 19.653 20.082 19.796 19.84 20.082C19.6053 20.3607 19.488 20.775 19.488 21.325V24.383H18.531V20.995C18.531 20.577 18.4247 20.2507 18.212 20.016C18.0067 19.774 17.7243 19.653 17.365 19.653C16.947 19.653 16.606 19.7997 16.342 20.093C16.0853 20.379 15.957 20.7897 15.957 21.325V24.383H15V18.883H15.957V19.62C16.331 19.0333 16.8773 18.74 17.596 18.74C18.3367 18.74 18.8757 19.0517 19.213 19.675C19.5943 19.0517 20.17 18.74 20.94 18.74Z" fill="#F6F6F6"/>
<path d="M25.424 15C25.9446 15 26.337 15.1137 26.601 15.341C26.865 15.5683 26.997 15.858 26.997 16.21C26.997 16.5033 26.9163 16.7453 26.755 16.936C26.601 17.1267 26.414 17.2587 26.194 17.332V17.365C26.48 17.4163 26.7073 17.5373 26.876 17.728C27.052 17.9113 27.14 18.1533 27.14 18.454C27.14 18.8793 26.986 19.2277 26.678 19.499C26.37 19.763 25.8896 19.895 25.237 19.895C24.9656 19.895 24.7126 19.873 24.478 19.829C24.2433 19.7777 24.016 19.697 23.796 19.587V18.894C24.0453 19.0113 24.2946 19.103 24.544 19.169C24.7933 19.235 25.028 19.268 25.248 19.268C25.6293 19.268 25.908 19.1947 26.084 19.048C26.26 18.894 26.348 18.6887 26.348 18.432C26.348 18.168 26.2416 17.9773 26.029 17.86C25.8163 17.7353 25.5193 17.673 25.138 17.673H24.511V17.068H25.138C25.5046 17.068 25.7723 16.9983 25.941 16.859C26.117 16.7123 26.205 16.5253 26.205 16.298C26.205 16.0633 26.128 15.8947 25.974 15.792C25.8273 15.682 25.6476 15.627 25.435 15.627C25.2076 15.627 24.995 15.6673 24.797 15.748C24.6063 15.8213 24.412 15.9203 24.214 16.045L23.818 15.539C24.0453 15.3703 24.2836 15.2383 24.533 15.143C24.7896 15.0477 25.0866 15 25.424 15Z" fill="#F6F6F6"/>
</svg>
