<svg width="400" height="140" viewBox="0 0 400 140" fill="none" xmlns="http://www.w3.org/2000/svg">
<rect width="122" height="140" rx="12" fill="white"/>
<path d="M75.3154 33.8699H63.4244V31.1767C65.9887 30.199 67.8116 27.7187 67.8116 24.8112C67.8112 21.0496 64.762 18 61 18C57.2384 18 54.1888 21.0496 54.1888 24.8112C54.1888 27.7183 56.0113 30.199 58.5756 31.1767V33.8699H46.685L39 62H83L75.3154 33.8699ZM58.5756 28.4997C57.377 27.7108 56.5859 26.3538 56.5859 24.8116C56.5859 22.3736 58.5624 20.3971 61 20.3971C63.438 20.3971 65.4145 22.3736 65.4145 24.8116C65.4145 26.3538 64.623 27.7108 63.4244 28.4997V26.9602H58.5756V28.4997Z" fill="#B9BCC2"/>
<path d="M37 49H85" stroke="#F6F6F6" stroke-width="3"/>
<path d="M58.662 56.162L61.379 59H60.191L57.683 56.393V59H56.726V53.5H57.683V55.931L60.059 53.5H61.291L58.662 56.162ZM62.269 53.5H65.877V54.424H63.226V59H62.269V53.5Z" fill="#F6F6F6"/>
<path d="M50.596 83.6H51.64V92H50.8V84.872L47.86 89.792H47.74L44.8 84.872V92H43.96V83.6H45.004L47.8 88.28L50.596 83.6ZM58.5977 87.176V86H59.3897V92H58.5977V90.824C58.0457 91.704 57.2377 92.144 56.1737 92.144C55.3177 92.144 54.5857 91.84 53.9777 91.232C53.3777 90.624 53.0777 89.88 53.0777 89C53.0777 88.12 53.3777 87.376 53.9777 86.768C54.5857 86.16 55.3177 85.856 56.1737 85.856C57.2377 85.856 58.0457 86.296 58.5977 87.176ZM54.5537 90.692C55.0097 91.148 55.5697 91.376 56.2337 91.376C56.8977 91.376 57.4577 91.148 57.9137 90.692C58.3697 90.22 58.5977 89.656 58.5977 89C58.5977 88.336 58.3697 87.776 57.9137 87.32C57.4577 86.856 56.8977 86.624 56.2337 86.624C55.5697 86.624 55.0097 86.856 54.5537 87.32C54.0977 87.776 53.8697 88.336 53.8697 89C53.8697 89.656 54.0977 90.22 54.5537 90.692ZM63.8626 92.144C62.9586 92.144 62.2066 91.844 61.6066 91.244C61.0066 90.628 60.7066 89.88 60.7066 89C60.7066 88.112 61.0066 87.368 61.6066 86.768C62.2066 86.16 62.9586 85.856 63.8626 85.856C64.4546 85.856 64.9866 86 65.4586 86.288C65.9306 86.568 66.2746 86.948 66.4906 87.428L65.8426 87.8C65.6826 87.44 65.4226 87.156 65.0626 86.948C64.7106 86.732 64.3106 86.624 63.8626 86.624C63.1986 86.624 62.6386 86.856 62.1826 87.32C61.7266 87.776 61.4986 88.336 61.4986 89C61.4986 89.656 61.7266 90.22 62.1826 90.692C62.6386 91.148 63.1986 91.376 63.8626 91.376C64.3026 91.376 64.6986 91.272 65.0506 91.064C65.4106 90.856 65.6906 90.568 65.8906 90.2L66.5506 90.584C66.3026 91.064 65.9386 91.444 65.4586 91.724C64.9786 92.004 64.4466 92.144 63.8626 92.144ZM70.4251 92.144C69.5211 92.144 68.7691 91.844 68.1691 91.244C67.5691 90.628 67.2691 89.88 67.2691 89C67.2691 88.112 67.5691 87.368 68.1691 86.768C68.7691 86.16 69.5211 85.856 70.4251 85.856C71.0171 85.856 71.5491 86 72.0211 86.288C72.4931 86.568 72.8371 86.948 73.0531 87.428L72.4051 87.8C72.2451 87.44 71.9851 87.156 71.6251 86.948C71.2731 86.732 70.8731 86.624 70.4251 86.624C69.7611 86.624 69.2011 86.856 68.7451 87.32C68.2891 87.776 68.0611 88.336 68.0611 89C68.0611 89.656 68.2891 90.22 68.7451 90.692C69.2011 91.148 69.7611 91.376 70.4251 91.376C70.8651 91.376 71.2611 91.272 71.6131 91.064C71.9731 90.856 72.2531 90.568 72.4531 90.2L73.1131 90.584C72.8651 91.064 72.5011 91.444 72.0211 91.724C71.5411 92.004 71.0091 92.144 70.4251 92.144ZM79.3516 87.176V86H80.1436V92H79.3516V90.824C78.7996 91.704 77.9916 92.144 76.9276 92.144C76.0716 92.144 75.3396 91.84 74.7316 91.232C74.1316 90.624 73.8316 89.88 73.8316 89C73.8316 88.12 74.1316 87.376 74.7316 86.768C75.3396 86.16 76.0716 85.856 76.9276 85.856C77.9916 85.856 78.7996 86.296 79.3516 87.176ZM75.3076 90.692C75.7636 91.148 76.3236 91.376 76.9876 91.376C77.6516 91.376 78.2116 91.148 78.6676 90.692C79.1236 90.22 79.3516 89.656 79.3516 89C79.3516 88.336 79.1236 87.776 78.6676 87.32C78.2116 86.856 77.6516 86.624 76.9876 86.624C76.3236 86.624 75.7636 86.856 75.3076 87.32C74.8516 87.776 74.6236 88.336 74.6236 89C74.6236 89.656 74.8516 90.22 75.3076 90.692Z" fill="#141414" fill-opacity="0.7"/>
<path d="M40.424 102.876L37.688 106.566C38.672 106.746 39.464 107.166 40.064 107.826C40.664 108.486 40.964 109.302 40.964 110.274C40.964 111.51 40.544 112.476 39.704 113.172C38.852 113.88 37.832 114.234 36.644 114.234C35.66 114.234 34.802 114.012 34.07 113.568C33.338 113.124 32.816 112.494 32.504 111.678L33.908 110.85C34.28 112.014 35.192 112.596 36.644 112.596C37.436 112.596 38.072 112.392 38.552 111.984C39.044 111.564 39.29 110.994 39.29 110.274C39.29 109.554 39.044 108.984 38.552 108.564C38.072 108.144 37.436 107.934 36.644 107.934H36.212L35.546 106.908L38.462 102.966H32.864V101.4H40.424V102.876ZM46.4568 102.984V101.4H54.3228V102.894L49.7328 114H47.9868L52.5408 102.984H46.4568ZM63.381 102.876L60.645 106.566C61.629 106.746 62.421 107.166 63.021 107.826C63.621 108.486 63.921 109.302 63.921 110.274C63.921 111.51 63.501 112.476 62.661 113.172C61.809 113.88 60.789 114.234 59.601 114.234C58.617 114.234 57.759 114.012 57.027 113.568C56.295 113.124 55.773 112.494 55.461 111.678L56.865 110.85C57.237 112.014 58.149 112.596 59.601 112.596C60.393 112.596 61.029 112.392 61.509 111.984C62.001 111.564 62.247 110.994 62.247 110.274C62.247 109.554 62.001 108.984 61.509 108.564C61.029 108.144 60.393 107.934 59.601 107.934H59.169L58.503 106.908L61.419 102.966H55.821V101.4H63.381V102.876ZM73.4734 110.04H75.0034V111.606H73.4734V114H71.7994V111.606H65.3734V110.04L69.8914 101.4H71.6914L67.1734 110.04H71.7994V106.476H73.4734V110.04ZM79.7388 109.356L84.1848 114H82.2408L78.1368 109.734V114H76.5708V105H78.1368V108.978L82.0248 105H84.0408L79.7388 109.356ZM85.6411 105H91.5451V106.512H87.2071V114H85.6411V105Z" fill="#141414"/>
<rect x="139" width="122" height="140" rx="12" fill="white"/>
<path d="M181 25C181 23.8954 181.895 23 183 23H219C220.105 23 221 23.8954 221 25V51C221 57.6274 215.627 63 209 63H193C186.373 63 181 57.6274 181 51V25Z" fill="#B9BCC2"/>
<path d="M153.96 83.6H158.64V84.392H154.8V92H153.96V83.6ZM158.671 86H162.967V92H162.175V86.768H159.463V89.444C159.463 90.444 159.271 91.132 158.887 91.508C158.511 91.884 157.991 92.048 157.327 92V91.256C157.791 91.304 158.131 91.192 158.347 90.92C158.563 90.648 158.671 90.156 158.671 89.444V86ZM167.021 91.028L168.965 86H169.805L167.237 92.552C166.997 93.16 166.661 93.628 166.229 93.956C165.805 94.292 165.333 94.44 164.813 94.4V93.656C165.533 93.744 166.081 93.328 166.457 92.408L166.613 92.036L163.925 86H164.765L167.021 91.028ZM173.192 92.144C172.336 92.144 171.616 91.86 171.032 91.292C170.456 90.716 170.168 89.972 170.168 89.06C170.168 88.036 170.32 87.252 170.624 86.708C170.928 86.156 171.544 85.656 172.472 85.208C172.768 85.072 173 84.968 173.168 84.896C173.448 84.784 173.668 84.688 173.828 84.608C174.524 84.288 174.876 83.892 174.884 83.42L175.508 83.78C175.468 83.98 175.404 84.16 175.316 84.32C175.212 84.496 175.108 84.636 175.004 84.74C174.908 84.844 174.756 84.956 174.548 85.076C174.412 85.156 174.248 85.244 174.056 85.34L173.456 85.592L172.892 85.832C172.34 86.072 171.928 86.324 171.656 86.588C171.392 86.844 171.204 87.18 171.092 87.596C171.348 87.252 171.684 86.992 172.1 86.816C172.516 86.632 172.936 86.54 173.36 86.54C174.16 86.54 174.82 86.804 175.34 87.332C175.868 87.852 176.132 88.52 176.132 89.336C176.132 90.144 175.852 90.816 175.292 91.352C174.74 91.88 174.04 92.144 173.192 92.144ZM171.632 90.764C172.048 91.156 172.568 91.352 173.192 91.352C173.816 91.352 174.328 91.164 174.728 90.788C175.136 90.404 175.34 89.92 175.34 89.336C175.34 88.744 175.148 88.26 174.764 87.884C174.388 87.5 173.884 87.308 173.252 87.308C172.684 87.308 172.168 87.488 171.704 87.848C171.24 88.192 171.008 88.664 171.008 89.264C171.008 89.872 171.216 90.372 171.632 90.764ZM178.128 90.62L181.704 86H182.376V92H181.584V87.38L178.008 92H177.336V86H178.128V90.62ZM188.299 88.616V86H189.091V92H188.299V89.384H184.843V92H184.051V86H184.843V88.616H188.299ZM195.926 87.176V86H196.718V92H195.926V90.824C195.374 91.704 194.566 92.144 193.502 92.144C192.646 92.144 191.914 91.84 191.306 91.232C190.706 90.624 190.406 89.88 190.406 89C190.406 88.12 190.706 87.376 191.306 86.768C191.914 86.16 192.646 85.856 193.502 85.856C194.566 85.856 195.374 86.296 195.926 87.176ZM191.882 90.692C192.338 91.148 192.898 91.376 193.562 91.376C194.226 91.376 194.786 91.148 195.242 90.692C195.698 90.22 195.926 89.656 195.926 89C195.926 88.336 195.698 87.776 195.242 87.32C194.786 86.856 194.226 86.624 193.562 86.624C192.898 86.624 192.338 86.856 191.882 87.32C191.426 87.776 191.198 88.336 191.198 89C191.198 89.656 191.426 90.22 191.882 90.692ZM203.027 88.88L206.243 92H205.187L202.187 89.108V92H201.395V86H202.187V88.652L205.043 86H206.123L203.027 88.88ZM211.755 91.244C211.139 91.844 210.395 92.144 209.523 92.144C208.635 92.144 207.887 91.844 207.279 91.244C206.671 90.636 206.367 89.888 206.367 89C206.367 88.112 206.671 87.368 207.279 86.768C207.887 86.16 208.635 85.856 209.523 85.856C210.403 85.856 211.147 86.16 211.755 86.768C212.371 87.368 212.679 88.112 212.679 89C212.679 89.88 212.371 90.628 211.755 91.244ZM207.843 90.692C208.299 91.148 208.859 91.376 209.523 91.376C210.187 91.376 210.747 91.148 211.203 90.692C211.659 90.22 211.887 89.656 211.887 89C211.887 88.336 211.659 87.776 211.203 87.32C210.747 86.856 210.187 86.624 209.523 86.624C208.859 86.624 208.299 86.856 207.843 87.32C207.387 87.776 207.159 88.336 207.159 89C207.159 89.656 207.387 90.22 207.843 90.692ZM214.004 86H219.044V92H218.252V86.768H214.796V92H214.004V86ZM225.879 87.176V86H226.671V92H225.879V90.824C225.327 91.704 224.519 92.144 223.455 92.144C222.599 92.144 221.867 91.84 221.259 91.232C220.659 90.624 220.359 89.88 220.359 89C220.359 88.12 220.659 87.376 221.259 86.768C221.867 86.16 222.599 85.856 223.455 85.856C224.519 85.856 225.327 86.296 225.879 87.176ZM221.835 90.692C222.291 91.148 222.851 91.376 223.515 91.376C224.179 91.376 224.739 91.148 225.195 90.692C225.651 90.22 225.879 89.656 225.879 89C225.879 88.336 225.651 87.776 225.195 87.32C224.739 86.856 224.179 86.624 223.515 86.624C222.851 86.624 222.291 86.856 221.835 87.32C221.379 87.776 221.151 88.336 221.151 89C221.151 89.656 221.379 90.22 221.835 90.692ZM232.596 88.616V86H233.388V92H232.596V89.384H229.14V92H228.348V86H229.14V88.616H232.596ZM235.855 90.62L239.431 86H240.103V92H239.311V87.38L235.735 92H235.063V86H235.855V90.62ZM243.662 86H246.098V92H245.306V89.696H244.274L242.426 92H241.418L243.314 89.672C242.826 89.6 242.426 89.4 242.114 89.072C241.81 88.736 241.658 88.332 241.658 87.86C241.658 87.324 241.85 86.88 242.234 86.528C242.634 86.176 243.11 86 243.662 86ZM243.662 88.952H245.306V86.768H243.662C243.318 86.768 243.03 86.872 242.798 87.08C242.566 87.28 242.45 87.54 242.45 87.86C242.45 88.18 242.566 88.444 242.798 88.652C243.03 88.852 243.318 88.952 243.662 88.952Z" fill="#141414" fill-opacity="0.7"/>
<path d="M175.424 102.876L172.688 106.566C173.672 106.746 174.464 107.166 175.064 107.826C175.664 108.486 175.964 109.302 175.964 110.274C175.964 111.51 175.544 112.476 174.704 113.172C173.852 113.88 172.832 114.234 171.644 114.234C170.66 114.234 169.802 114.012 169.07 113.568C168.338 113.124 167.816 112.494 167.504 111.678L168.908 110.85C169.28 112.014 170.192 112.596 171.644 112.596C172.436 112.596 173.072 112.392 173.552 111.984C174.044 111.564 174.29 110.994 174.29 110.274C174.29 109.554 174.044 108.984 173.552 108.564C173.072 108.144 172.436 107.934 171.644 107.934H171.212L170.546 106.908L173.462 102.966H167.864V101.4H175.424V102.876ZM181.385 102.552L184.697 101.4H186.137V114H184.481V103.2L181.799 103.992L181.385 102.552ZM196.081 110.04H197.611V111.606H196.081V114H194.407V111.606H187.981V110.04L192.499 101.4H194.299L189.781 110.04H194.407V106.476H196.081V110.04ZM207.242 112.452C206.402 113.64 205.208 114.234 203.66 114.234C202.112 114.234 200.918 113.64 200.078 112.452C199.226 111.252 198.8 109.668 198.8 107.7C198.8 105.732 199.226 104.148 200.078 102.948C200.918 101.76 202.112 101.166 203.66 101.166C205.208 101.166 206.402 101.76 207.242 102.948C208.094 104.148 208.52 105.732 208.52 107.7C208.52 109.668 208.094 111.252 207.242 112.452ZM200.474 107.7C200.474 109.26 200.75 110.466 201.302 111.318C201.854 112.17 202.64 112.596 203.66 112.596C204.68 112.596 205.466 112.17 206.018 111.318C206.582 110.466 206.864 109.26 206.864 107.7C206.864 106.14 206.582 104.934 206.018 104.082C205.466 103.218 204.68 102.786 203.66 102.786C202.64 102.786 201.854 103.212 201.302 104.064C200.75 104.916 200.474 106.128 200.474 107.7ZM217.842 105H219.516V114H217.986V107.466L215.124 112.074H214.926L212.064 107.466V114H210.516V105H212.19L215.016 109.554L217.842 105ZM229.233 105H230.907V114H229.377V107.466L226.515 112.074H226.317L223.455 107.466V114H221.907V105H223.581L226.407 109.554L229.233 105Z" fill="#141414"/>
<g clip-path="url(#clip0_30_22591)">
<path fill-rule="evenodd" clip-rule="evenodd" d="M195.594 38.5406C195.457 38.3728 195.292 38.2382 195.108 38.1449C194.924 38.0516 194.726 38.0014 194.525 37.9974C194.323 37.9933 194.124 38.0355 193.937 38.1214C193.751 38.2073 193.581 38.3351 193.439 38.4972C193.297 38.6594 193.184 38.8525 193.109 39.0652C193.034 39.2778 192.997 39.5055 193 39.7348C193.004 39.9641 193.048 40.1902 193.13 40.3997C193.212 40.6091 193.33 40.7976 193.477 40.954L199.969 48.3558L201.028 49.5625L202.087 48.3558L208.579 40.9563C208.852 40.6343 209.003 40.2031 209 39.7554C208.997 39.3076 208.839 38.8793 208.562 38.5625C208.284 38.2458 207.908 38.066 207.515 38.0619C207.123 38.0578 206.744 38.2297 206.461 38.5406L202.526 43.0258L202.526 19.3951C202.526 18.9422 202.368 18.5079 202.087 18.1876C201.806 17.8674 201.425 17.6875 201.028 17.6875C200.631 17.6875 200.249 17.8674 199.968 18.1876C199.688 18.5079 199.53 18.9422 199.53 19.3951L199.53 43.0258L195.594 38.5406Z" fill="#F6F6F6"/>
</g>
<path d="M198.666 53.357C199.289 53.357 199.788 53.5587 200.162 53.962C200.543 54.3653 200.734 54.9043 200.734 55.579V59H199.777V55.612C199.777 55.194 199.667 54.8677 199.447 54.633C199.234 54.391 198.941 54.27 198.567 54.27C198.142 54.27 197.808 54.413 197.566 54.699C197.331 54.9777 197.214 55.392 197.214 55.942V59H196.257V55.612C196.257 55.194 196.151 54.8677 195.938 54.633C195.733 54.391 195.45 54.27 195.091 54.27C194.673 54.27 194.332 54.4167 194.068 54.71C193.811 54.996 193.683 55.4067 193.683 55.942V59H192.726V53.5H193.683V54.237C194.057 53.6503 194.603 53.357 195.322 53.357C196.063 53.357 196.602 53.6687 196.939 54.292C197.32 53.6687 197.896 53.357 198.666 53.357ZM208.001 53.357C208.624 53.357 209.123 53.5587 209.497 53.962C209.878 54.3653 210.069 54.9043 210.069 55.579V59H209.112V55.612C209.112 55.194 209.002 54.8677 208.782 54.633C208.569 54.391 208.276 54.27 207.902 54.27C207.477 54.27 207.143 54.413 206.901 54.699C206.666 54.9777 206.549 55.392 206.549 55.942V59H205.592V55.612C205.592 55.194 205.486 54.8677 205.273 54.633C205.068 54.391 204.785 54.27 204.426 54.27C204.008 54.27 203.667 54.4167 203.403 54.71C203.146 54.996 203.018 55.4067 203.018 55.942V59H202.061V53.5H203.018V54.237C203.392 53.6503 203.938 53.357 204.657 53.357C205.398 53.357 205.937 53.6687 206.274 54.292C206.655 53.6687 207.231 53.357 208.001 53.357Z" fill="#F6F6F6"/>
<rect x="278" width="122" height="140" rx="12" fill="white"/>
<path d="M299.3 88.16V91.208H303.38V92H298.46V83.6H303.32V84.392H299.3V87.368H303.02V88.16H299.3ZM309.671 86H310.583V92H309.791V87.212L307.691 90.62H307.595L305.495 87.212V92H304.703V86H305.615L307.643 89.288L309.671 86ZM313.894 88.88L317.11 92H316.054L313.054 89.108V92H312.262V86H313.054V88.652L315.91 86H316.99L313.894 88.88ZM322.622 91.244C322.006 91.844 321.262 92.144 320.39 92.144C319.502 92.144 318.754 91.844 318.146 91.244C317.538 90.636 317.234 89.888 317.234 89C317.234 88.112 317.538 87.368 318.146 86.768C318.754 86.16 319.502 85.856 320.39 85.856C321.27 85.856 322.014 86.16 322.622 86.768C323.238 87.368 323.546 88.112 323.546 89C323.546 89.88 323.238 90.628 322.622 91.244ZM318.71 90.692C319.166 91.148 319.726 91.376 320.39 91.376C321.054 91.376 321.614 91.148 322.07 90.692C322.526 90.22 322.754 89.656 322.754 89C322.754 88.336 322.526 87.776 322.07 87.32C321.614 86.856 321.054 86.624 320.39 86.624C319.726 86.624 319.166 86.856 318.71 87.32C318.254 87.776 318.026 88.336 318.026 89C318.026 89.656 318.254 90.22 318.71 90.692ZM327.667 92.144C326.763 92.144 326.011 91.844 325.411 91.244C324.811 90.628 324.511 89.88 324.511 89C324.511 88.112 324.811 87.368 325.411 86.768C326.011 86.16 326.763 85.856 327.667 85.856C328.259 85.856 328.791 86 329.263 86.288C329.735 86.568 330.079 86.948 330.295 87.428L329.647 87.8C329.487 87.44 329.227 87.156 328.867 86.948C328.515 86.732 328.115 86.624 327.667 86.624C327.003 86.624 326.443 86.856 325.987 87.32C325.531 87.776 325.303 88.336 325.303 89C325.303 89.656 325.531 90.22 325.987 90.692C326.443 91.148 327.003 91.376 327.667 91.376C328.107 91.376 328.503 91.272 328.855 91.064C329.215 90.856 329.495 90.568 329.695 90.2L330.355 90.584C330.107 91.064 329.743 91.444 329.263 91.724C328.783 92.004 328.251 92.144 327.667 92.144ZM330.655 86H335.695V86.768H333.571V92H332.779V86.768H330.655V86ZM337.452 88.28H339.096C339.648 88.28 340.12 88.456 340.512 88.808C340.904 89.152 341.1 89.596 341.1 90.14C341.1 90.692 340.904 91.14 340.512 91.484C340.136 91.828 339.664 92 339.096 92H336.66V86H337.452V88.28ZM337.452 91.232H339.096C339.44 91.232 339.728 91.132 339.96 90.932C340.192 90.724 340.308 90.46 340.308 90.14C340.308 89.82 340.192 89.56 339.96 89.36C339.728 89.152 339.44 89.048 339.096 89.048H337.452V91.232ZM346.929 88.88L350.145 92H349.089L346.089 89.108V92H345.297V86H346.089V88.652L348.945 86H350.025L346.929 88.88ZM355.657 91.244C355.041 91.844 354.297 92.144 353.425 92.144C352.537 92.144 351.789 91.844 351.181 91.244C350.573 90.636 350.269 89.888 350.269 89C350.269 88.112 350.573 87.368 351.181 86.768C351.789 86.16 352.537 85.856 353.425 85.856C354.305 85.856 355.049 86.16 355.657 86.768C356.273 87.368 356.581 88.112 356.581 89C356.581 89.88 356.273 90.628 355.657 91.244ZM351.745 90.692C352.201 91.148 352.761 91.376 353.425 91.376C354.089 91.376 354.649 91.148 355.105 90.692C355.561 90.22 355.789 89.656 355.789 89C355.789 88.336 355.561 87.776 355.105 87.32C354.649 86.856 354.089 86.624 353.425 86.624C352.761 86.624 352.201 86.856 351.745 87.32C351.289 87.776 351.061 88.336 351.061 89C351.061 89.656 351.289 90.22 351.745 90.692ZM361.722 88.916C362.378 89.156 362.706 89.624 362.706 90.32C362.706 90.816 362.538 91.22 362.202 91.532C361.874 91.844 361.414 92 360.822 92H357.906V86H360.582C361.158 86 361.606 86.148 361.926 86.444C362.254 86.74 362.418 87.128 362.418 87.608C362.418 88.208 362.186 88.644 361.722 88.916ZM360.582 86.768H358.698V88.592H360.582C361.278 88.592 361.626 88.28 361.626 87.656C361.626 87.376 361.534 87.16 361.35 87.008C361.174 86.848 360.918 86.768 360.582 86.768ZM358.698 91.232H360.822C361.174 91.232 361.442 91.148 361.626 90.98C361.818 90.812 361.914 90.576 361.914 90.272C361.914 89.984 361.818 89.76 361.626 89.6C361.442 89.44 361.174 89.36 360.822 89.36H358.698V91.232ZM371.154 91.232V86H371.946V92H363.906V86H364.698V91.232H367.53V86H368.322V91.232H371.154ZM378.781 87.176V86H379.573V92H378.781V90.824C378.229 91.704 377.421 92.144 376.357 92.144C375.501 92.144 374.769 91.84 374.161 91.232C373.561 90.624 373.261 89.88 373.261 89C373.261 88.12 373.561 87.376 374.161 86.768C374.769 86.16 375.501 85.856 376.357 85.856C377.421 85.856 378.229 86.296 378.781 87.176ZM374.737 90.692C375.193 91.148 375.753 91.376 376.417 91.376C377.081 91.376 377.641 91.148 378.097 90.692C378.553 90.22 378.781 89.656 378.781 89C378.781 88.336 378.553 87.776 378.097 87.32C377.641 86.856 377.081 86.624 376.417 86.624C375.753 86.624 375.193 86.856 374.737 87.32C374.281 87.776 374.053 88.336 374.053 89C374.053 89.656 374.281 90.22 374.737 90.692Z" fill="#141414" fill-opacity="0.7"/>
<path d="M313.252 112.452C312.412 113.64 311.218 114.234 309.67 114.234C308.122 114.234 306.928 113.64 306.088 112.452C305.236 111.252 304.81 109.668 304.81 107.7C304.81 105.732 305.236 104.148 306.088 102.948C306.928 101.76 308.122 101.166 309.67 101.166C311.218 101.166 312.412 101.76 313.252 102.948C314.104 104.148 314.53 105.732 314.53 107.7C314.53 109.668 314.104 111.252 313.252 112.452ZM306.484 107.7C306.484 109.26 306.76 110.466 307.312 111.318C307.864 112.17 308.65 112.596 309.67 112.596C310.69 112.596 311.476 112.17 312.028 111.318C312.592 110.466 312.874 109.26 312.874 107.7C312.874 106.14 312.592 104.934 312.028 104.082C311.476 103.218 310.69 102.786 309.67 102.786C308.65 102.786 307.864 103.212 307.312 104.064C306.76 104.916 306.484 106.128 306.484 107.7ZM316.971 114.198C316.647 114.198 316.371 114.084 316.143 113.856C315.915 113.628 315.801 113.352 315.801 113.028C315.801 112.704 315.915 112.428 316.143 112.2C316.371 111.972 316.647 111.858 316.971 111.858C317.307 111.858 317.583 111.972 317.799 112.2C318.027 112.428 318.141 112.704 318.141 113.028C318.141 113.352 318.027 113.628 317.799 113.856C317.583 114.084 317.307 114.198 316.971 114.198ZM327.877 112.452C327.037 113.64 325.843 114.234 324.295 114.234C322.747 114.234 321.553 113.64 320.713 112.452C319.861 111.252 319.435 109.668 319.435 107.7C319.435 105.732 319.861 104.148 320.713 102.948C321.553 101.76 322.747 101.166 324.295 101.166C325.843 101.166 327.037 101.76 327.877 102.948C328.729 104.148 329.155 105.732 329.155 107.7C329.155 109.668 328.729 111.252 327.877 112.452ZM321.109 107.7C321.109 109.26 321.385 110.466 321.937 111.318C322.489 112.17 323.275 112.596 324.295 112.596C325.315 112.596 326.101 112.17 326.653 111.318C327.217 110.466 327.499 109.26 327.499 107.7C327.499 106.14 327.217 104.934 326.653 104.082C326.101 103.218 325.315 102.786 324.295 102.786C323.275 102.786 322.489 103.212 321.937 104.064C321.385 104.916 321.109 106.128 321.109 107.7ZM329.935 102.984V101.4H337.801V102.894L333.211 114H331.465L336.019 102.984H329.935ZM346.692 114H338.556V112.632L343.002 108.096C344.19 106.908 344.784 105.888 344.784 105.036C344.784 104.34 344.568 103.794 344.136 103.398C343.716 102.99 343.188 102.786 342.552 102.786C341.364 102.786 340.5 103.35 339.96 104.478L338.556 103.65C338.94 102.846 339.48 102.234 340.176 101.814C340.872 101.382 341.658 101.166 342.534 101.166C343.602 101.166 344.52 101.514 345.288 102.21C346.068 102.918 346.458 103.854 346.458 105.018C346.458 106.29 345.708 107.676 344.208 109.176L340.986 112.38H346.692V114ZM362.808 104.766C363.828 104.766 364.644 105.096 365.256 105.756C365.88 106.416 366.192 107.298 366.192 108.402V114H364.626V108.456C364.626 107.772 364.446 107.238 364.086 106.854C363.738 106.458 363.258 106.26 362.646 106.26C361.95 106.26 361.404 106.494 361.008 106.962C360.624 107.418 360.432 108.096 360.432 108.996V114H358.866V108.456C358.866 107.772 358.692 107.238 358.344 106.854C358.008 106.458 357.546 106.26 356.958 106.26C356.274 106.26 355.716 106.5 355.284 106.98C354.864 107.448 354.654 108.12 354.654 108.996V114H353.088V105H354.654V106.206C355.266 105.246 356.16 104.766 357.336 104.766C358.548 104.766 359.43 105.276 359.982 106.296C360.606 105.276 361.548 104.766 362.808 104.766ZM370.146 98.646C370.998 98.646 371.64 98.832 372.072 99.204C372.504 99.576 372.72 100.05 372.72 100.626C372.72 101.106 372.588 101.502 372.324 101.814C372.072 102.126 371.766 102.342 371.406 102.462V102.516C371.874 102.6 372.246 102.798 372.522 103.11C372.81 103.41 372.954 103.806 372.954 104.298C372.954 104.994 372.702 105.564 372.198 106.008C371.694 106.44 370.908 106.656 369.84 106.656C369.396 106.656 368.982 106.62 368.598 106.548C368.214 106.464 367.842 106.332 367.482 106.152V105.018C367.89 105.21 368.298 105.36 368.706 105.468C369.114 105.576 369.498 105.63 369.858 105.63C370.482 105.63 370.938 105.51 371.226 105.27C371.514 105.018 371.658 104.682 371.658 104.262C371.658 103.83 371.484 103.518 371.136 103.326C370.788 103.122 370.302 103.02 369.678 103.02H368.652V102.03H369.678C370.278 102.03 370.716 101.916 370.992 101.688C371.28 101.448 371.424 101.142 371.424 100.77C371.424 100.386 371.298 100.11 371.046 99.942C370.806 99.762 370.512 99.672 370.164 99.672C369.792 99.672 369.444 99.738 369.12 99.87C368.808 99.99 368.49 100.152 368.166 100.356L367.518 99.528C367.89 99.252 368.28 99.036 368.688 98.88C369.108 98.724 369.594 98.646 370.146 98.646Z" fill="#141414"/>
<circle cx="339" cy="43" r="20" fill="#B9BCC2"/>
<circle cx="339" cy="43" r="14.5" fill="#B9BCC2" stroke="#F6F6F6" stroke-width="3"/>
<path d="M339.94 41.74C340.563 41.74 341.062 41.9417 341.436 42.345C341.817 42.7483 342.008 43.2873 342.008 43.962V47.383H341.051V43.995C341.051 43.577 340.941 43.2507 340.721 43.016C340.508 42.774 340.215 42.653 339.841 42.653C339.416 42.653 339.082 42.796 338.84 43.082C338.605 43.3607 338.488 43.775 338.488 44.325V47.383H337.531V43.995C337.531 43.577 337.425 43.2507 337.212 43.016C337.007 42.774 336.724 42.653 336.365 42.653C335.947 42.653 335.606 42.7997 335.342 43.093C335.085 43.379 334.957 43.7897 334.957 44.325V47.383H334V41.883H334.957V42.62C335.331 42.0333 335.877 41.74 336.596 41.74C337.337 41.74 337.876 42.0517 338.213 42.675C338.594 42.0517 339.17 41.74 339.94 41.74Z" fill="#F6F6F6"/>
<path d="M344.424 38C344.945 38 345.337 38.1137 345.601 38.341C345.865 38.5683 345.997 38.858 345.997 39.21C345.997 39.5033 345.916 39.7453 345.755 39.936C345.601 40.1267 345.414 40.2587 345.194 40.332V40.365C345.48 40.4163 345.707 40.5373 345.876 40.728C346.052 40.9113 346.14 41.1533 346.14 41.454C346.14 41.8793 345.986 42.2277 345.678 42.499C345.37 42.763 344.89 42.895 344.237 42.895C343.966 42.895 343.713 42.873 343.478 42.829C343.243 42.7777 343.016 42.697 342.796 42.587V41.894C343.045 42.0113 343.295 42.103 343.544 42.169C343.793 42.235 344.028 42.268 344.248 42.268C344.629 42.268 344.908 42.1947 345.084 42.048C345.26 41.894 345.348 41.6887 345.348 41.432C345.348 41.168 345.242 40.9773 345.029 40.86C344.816 40.7353 344.519 40.673 344.138 40.673H343.511V40.068H344.138C344.505 40.068 344.772 39.9983 344.941 39.859C345.117 39.7123 345.205 39.5253 345.205 39.298C345.205 39.0633 345.128 38.8947 344.974 38.792C344.827 38.682 344.648 38.627 344.435 38.627C344.208 38.627 343.995 38.6673 343.797 38.748C343.606 38.8213 343.412 38.9203 343.214 39.045L342.818 38.539C343.045 38.3703 343.284 38.2383 343.533 38.143C343.79 38.0477 344.087 38 344.424 38Z" fill="#F6F6F6"/>
<defs>
<clipPath id="clip0_30_22591">
<rect width="31" height="36" fill="white" transform="translate(217 57) rotate(-180)"/>
</clipPath>
</defs>
</svg>
