<svg width="400" height="140" viewBox="0 0 400 140" fill="none" xmlns="http://www.w3.org/2000/svg">
<rect width="122" height="140" rx="12" fill="#F6F6F6"/>
<path d="M75.3154 33.8699H63.4244V31.1767C65.9887 30.199 67.8116 27.7187 67.8116 24.8112C67.8112 21.0496 64.762 18 61 18C57.2384 18 54.1888 21.0496 54.1888 24.8112C54.1888 27.7183 56.0113 30.199 58.5756 31.1767V33.8699H46.685L39 62H83L75.3154 33.8699ZM58.5756 28.4997C57.377 27.7108 56.5859 26.3538 56.5859 24.8116C56.5859 22.3736 58.5624 20.3971 61 20.3971C63.438 20.3971 65.4145 22.3736 65.4145 24.8116C65.4145 26.3538 64.623 27.7108 63.4244 28.4997V26.9602H58.5756V28.4997Z" fill="#B9BCC2"/>
<path d="M37 49H85" stroke="#F6F6F6" stroke-width="3"/>
<path d="M58.662 56.162L61.379 59H60.191L57.683 56.393V59H56.726V53.5H57.683V55.931L60.059 53.5H61.291L58.662 56.162ZM62.269 53.5H65.877V54.424H63.226V59H62.269V53.5Z" fill="#F6F6F6"/>
<path d="M49.596 83.6H50.64V92H49.8V84.872L46.86 89.792H46.74L43.8 84.872V92H42.96V83.6H44.004L46.8 88.28L49.596 83.6ZM57.5977 87.176V86H58.3897V92H57.5977V90.824C57.0457 91.704 56.2377 92.144 55.1737 92.144C54.3177 92.144 53.5857 91.84 52.9777 91.232C52.3777 90.624 52.0777 89.88 52.0777 89C52.0777 88.12 52.3777 87.376 52.9777 86.768C53.5857 86.16 54.3177 85.856 55.1737 85.856C56.2377 85.856 57.0457 86.296 57.5977 87.176ZM53.5537 90.692C54.0097 91.148 54.5697 91.376 55.2337 91.376C55.8977 91.376 56.4577 91.148 56.9137 90.692C57.3697 90.22 57.5977 89.656 57.5977 89C57.5977 88.336 57.3697 87.776 56.9137 87.32C56.4577 86.856 55.8977 86.624 55.2337 86.624C54.5697 86.624 54.0097 86.856 53.5537 87.32C53.0977 87.776 52.8697 88.336 52.8697 89C52.8697 89.656 53.0977 90.22 53.5537 90.692ZM62.8626 92.144C61.9586 92.144 61.2066 91.844 60.6066 91.244C60.0066 90.628 59.7066 89.88 59.7066 89C59.7066 88.112 60.0066 87.368 60.6066 86.768C61.2066 86.16 61.9586 85.856 62.8626 85.856C63.4546 85.856 63.9866 86 64.4586 86.288C64.9306 86.568 65.2746 86.948 65.4906 87.428L64.8426 87.8C64.6826 87.44 64.4226 87.156 64.0626 86.948C63.7106 86.732 63.3106 86.624 62.8626 86.624C62.1986 86.624 61.6386 86.856 61.1826 87.32C60.7266 87.776 60.4986 88.336 60.4986 89C60.4986 89.656 60.7266 90.22 61.1826 90.692C61.6386 91.148 62.1986 91.376 62.8626 91.376C63.3026 91.376 63.6986 91.272 64.0506 91.064C64.4106 90.856 64.6906 90.568 64.8906 90.2L65.5506 90.584C65.3026 91.064 64.9386 91.444 64.4586 91.724C63.9786 92.004 63.4466 92.144 62.8626 92.144ZM69.4251 92.144C68.5211 92.144 67.7691 91.844 67.1691 91.244C66.5691 90.628 66.2691 89.88 66.2691 89C66.2691 88.112 66.5691 87.368 67.1691 86.768C67.7691 86.16 68.5211 85.856 69.4251 85.856C70.0171 85.856 70.5491 86 71.0211 86.288C71.4931 86.568 71.8371 86.948 72.0531 87.428L71.4051 87.8C71.2451 87.44 70.9851 87.156 70.6251 86.948C70.2731 86.732 69.8731 86.624 69.4251 86.624C68.7611 86.624 68.2011 86.856 67.7451 87.32C67.2891 87.776 67.0611 88.336 67.0611 89C67.0611 89.656 67.2891 90.22 67.7451 90.692C68.2011 91.148 68.7611 91.376 69.4251 91.376C69.8651 91.376 70.2611 91.272 70.6131 91.064C70.9731 90.856 71.2531 90.568 71.4531 90.2L72.1131 90.584C71.8651 91.064 71.5011 91.444 71.0211 91.724C70.5411 92.004 70.0091 92.144 69.4251 92.144ZM78.3516 87.176V86H79.1436V92H78.3516V90.824C77.7996 91.704 76.9916 92.144 75.9276 92.144C75.0716 92.144 74.3396 91.84 73.7316 91.232C73.1316 90.624 72.8316 89.88 72.8316 89C72.8316 88.12 73.1316 87.376 73.7316 86.768C74.3396 86.16 75.0716 85.856 75.9276 85.856C76.9916 85.856 77.7996 86.296 78.3516 87.176ZM74.3076 90.692C74.7636 91.148 75.3236 91.376 75.9876 91.376C76.6516 91.376 77.2116 91.148 77.6676 90.692C78.1236 90.22 78.3516 89.656 78.3516 89C78.3516 88.336 78.1236 87.776 77.6676 87.32C77.2116 86.856 76.6516 86.624 75.9876 86.624C75.3236 86.624 74.7636 86.856 74.3076 87.32C73.8516 87.776 73.6236 88.336 73.6236 89C73.6236 89.656 73.8516 90.22 74.3076 90.692Z" fill="#141414" fill-opacity="0.7"/>
<path d="M40.784 114H32.648V112.632L37.094 108.096C38.282 106.908 38.876 105.888 38.876 105.036C38.876 104.34 38.66 103.794 38.228 103.398C37.808 102.99 37.28 102.786 36.644 102.786C35.456 102.786 34.592 103.35 34.052 104.478L32.648 103.65C33.032 102.846 33.572 102.234 34.268 101.814C34.964 101.382 35.75 101.166 36.626 101.166C37.694 101.166 38.612 101.514 39.38 102.21C40.16 102.918 40.55 103.854 40.55 105.018C40.55 106.29 39.8 107.676 38.3 109.176L35.078 112.38H40.784V114ZM49.0162 106.314H50.8522C52.0402 106.314 53.0422 106.668 53.8582 107.376C54.6862 108.084 55.1002 109.05 55.1002 110.274C55.1002 111.51 54.6802 112.476 53.8402 113.172C52.9882 113.88 51.9682 114.234 50.7802 114.234C49.7962 114.234 48.9262 114 48.1702 113.532C47.4262 113.052 46.9102 112.386 46.6222 111.534L48.0442 110.724C48.2122 111.324 48.5362 111.786 49.0162 112.11C49.4962 112.434 50.0842 112.596 50.7802 112.596C51.5842 112.596 52.2262 112.392 52.7062 111.984C53.1982 111.564 53.4442 110.994 53.4442 110.274C53.4442 109.554 53.1982 108.984 52.7062 108.564C52.2262 108.144 51.5962 107.934 50.8162 107.934H47.2522L47.7202 101.4H54.6142V102.966H49.2322L49.0162 106.314ZM60.6076 105.756C61.8676 105.756 62.9056 106.152 63.7216 106.944C64.5376 107.724 64.9456 108.738 64.9456 109.986C64.9456 111.234 64.5376 112.254 63.7216 113.046C62.9056 113.838 61.8676 114.234 60.6076 114.234C59.3236 114.234 58.2796 113.838 57.4756 113.046C56.6716 112.254 56.2696 111.234 56.2696 109.986C56.2696 109.002 56.5216 108.162 57.0256 107.466L61.0756 101.4H62.9836L60.0136 105.792C60.3736 105.768 60.5716 105.756 60.6076 105.756ZM60.6076 107.358C59.8036 107.358 59.1556 107.598 58.6636 108.078C58.1716 108.558 57.9256 109.194 57.9256 109.986C57.9256 110.778 58.1716 111.42 58.6636 111.912C59.1676 112.392 59.8156 112.632 60.6076 112.632C61.3996 112.632 62.0416 112.392 62.5336 111.912C63.0376 111.42 63.2896 110.778 63.2896 109.986C63.2896 109.194 63.0376 108.558 62.5336 108.078C62.0416 107.598 61.3996 107.358 60.6076 107.358ZM64.6853 102.984V101.4H72.5513V102.894L67.9613 114H66.2153L70.7693 102.984H64.6853ZM77.5415 109.356L81.9875 114H80.0435L75.9395 109.734V114H74.3735V105H75.9395V108.978L79.8275 105H81.8435L77.5415 109.356ZM83.4439 105H89.3479V106.512H85.0099V114H83.4439V105Z" fill="#141414"/>
<rect x="139" width="122" height="140" rx="12" fill="#F6F6F6"/>
<path d="M153.96 83.6H158.64V84.392H154.8V92H153.96V83.6ZM158.671 86H162.967V92H162.175V86.768H159.463V89.444C159.463 90.444 159.271 91.132 158.887 91.508C158.511 91.884 157.991 92.048 157.327 92V91.256C157.791 91.304 158.131 91.192 158.347 90.92C158.563 90.648 158.671 90.156 158.671 89.444V86ZM167.021 91.028L168.965 86H169.805L167.237 92.552C166.997 93.16 166.661 93.628 166.229 93.956C165.805 94.292 165.333 94.44 164.813 94.4V93.656C165.533 93.744 166.081 93.328 166.457 92.408L166.613 92.036L163.925 86H164.765L167.021 91.028ZM173.192 92.144C172.336 92.144 171.616 91.86 171.032 91.292C170.456 90.716 170.168 89.972 170.168 89.06C170.168 88.036 170.32 87.252 170.624 86.708C170.928 86.156 171.544 85.656 172.472 85.208C172.768 85.072 173 84.968 173.168 84.896C173.448 84.784 173.668 84.688 173.828 84.608C174.524 84.288 174.876 83.892 174.884 83.42L175.508 83.78C175.468 83.98 175.404 84.16 175.316 84.32C175.212 84.496 175.108 84.636 175.004 84.74C174.908 84.844 174.756 84.956 174.548 85.076C174.412 85.156 174.248 85.244 174.056 85.34L173.456 85.592L172.892 85.832C172.34 86.072 171.928 86.324 171.656 86.588C171.392 86.844 171.204 87.18 171.092 87.596C171.348 87.252 171.684 86.992 172.1 86.816C172.516 86.632 172.936 86.54 173.36 86.54C174.16 86.54 174.82 86.804 175.34 87.332C175.868 87.852 176.132 88.52 176.132 89.336C176.132 90.144 175.852 90.816 175.292 91.352C174.74 91.88 174.04 92.144 173.192 92.144ZM171.632 90.764C172.048 91.156 172.568 91.352 173.192 91.352C173.816 91.352 174.328 91.164 174.728 90.788C175.136 90.404 175.34 89.92 175.34 89.336C175.34 88.744 175.148 88.26 174.764 87.884C174.388 87.5 173.884 87.308 173.252 87.308C172.684 87.308 172.168 87.488 171.704 87.848C171.24 88.192 171.008 88.664 171.008 89.264C171.008 89.872 171.216 90.372 171.632 90.764ZM178.128 90.62L181.704 86H182.376V92H181.584V87.38L178.008 92H177.336V86H178.128V90.62ZM188.299 88.616V86H189.091V92H188.299V89.384H184.843V92H184.051V86H184.843V88.616H188.299ZM195.926 87.176V86H196.718V92H195.926V90.824C195.374 91.704 194.566 92.144 193.502 92.144C192.646 92.144 191.914 91.84 191.306 91.232C190.706 90.624 190.406 89.88 190.406 89C190.406 88.12 190.706 87.376 191.306 86.768C191.914 86.16 192.646 85.856 193.502 85.856C194.566 85.856 195.374 86.296 195.926 87.176ZM191.882 90.692C192.338 91.148 192.898 91.376 193.562 91.376C194.226 91.376 194.786 91.148 195.242 90.692C195.698 90.22 195.926 89.656 195.926 89C195.926 88.336 195.698 87.776 195.242 87.32C194.786 86.856 194.226 86.624 193.562 86.624C192.898 86.624 192.338 86.856 191.882 87.32C191.426 87.776 191.198 88.336 191.198 89C191.198 89.656 191.426 90.22 191.882 90.692ZM203.027 88.88L206.243 92H205.187L202.187 89.108V92H201.395V86H202.187V88.652L205.043 86H206.123L203.027 88.88ZM211.755 91.244C211.139 91.844 210.395 92.144 209.523 92.144C208.635 92.144 207.887 91.844 207.279 91.244C206.671 90.636 206.367 89.888 206.367 89C206.367 88.112 206.671 87.368 207.279 86.768C207.887 86.16 208.635 85.856 209.523 85.856C210.403 85.856 211.147 86.16 211.755 86.768C212.371 87.368 212.679 88.112 212.679 89C212.679 89.88 212.371 90.628 211.755 91.244ZM207.843 90.692C208.299 91.148 208.859 91.376 209.523 91.376C210.187 91.376 210.747 91.148 211.203 90.692C211.659 90.22 211.887 89.656 211.887 89C211.887 88.336 211.659 87.776 211.203 87.32C210.747 86.856 210.187 86.624 209.523 86.624C208.859 86.624 208.299 86.856 207.843 87.32C207.387 87.776 207.159 88.336 207.159 89C207.159 89.656 207.387 90.22 207.843 90.692ZM214.004 86H219.044V92H218.252V86.768H214.796V92H214.004V86ZM225.879 87.176V86H226.671V92H225.879V90.824C225.327 91.704 224.519 92.144 223.455 92.144C222.599 92.144 221.867 91.84 221.259 91.232C220.659 90.624 220.359 89.88 220.359 89C220.359 88.12 220.659 87.376 221.259 86.768C221.867 86.16 222.599 85.856 223.455 85.856C224.519 85.856 225.327 86.296 225.879 87.176ZM221.835 90.692C222.291 91.148 222.851 91.376 223.515 91.376C224.179 91.376 224.739 91.148 225.195 90.692C225.651 90.22 225.879 89.656 225.879 89C225.879 88.336 225.651 87.776 225.195 87.32C224.739 86.856 224.179 86.624 223.515 86.624C222.851 86.624 222.291 86.856 221.835 87.32C221.379 87.776 221.151 88.336 221.151 89C221.151 89.656 221.379 90.22 221.835 90.692ZM232.596 88.616V86H233.388V92H232.596V89.384H229.14V92H228.348V86H229.14V88.616H232.596ZM235.855 90.62L239.431 86H240.103V92H239.311V87.38L235.735 92H235.063V86H235.855V90.62ZM243.662 86H246.098V92H245.306V89.696H244.274L242.426 92H241.418L243.314 89.672C242.826 89.6 242.426 89.4 242.114 89.072C241.81 88.736 241.658 88.332 241.658 87.86C241.658 87.324 241.85 86.88 242.234 86.528C242.634 86.176 243.11 86 243.662 86ZM243.662 88.952H245.306V86.768H243.662C243.318 86.768 243.03 86.872 242.798 87.08C242.566 87.28 242.45 87.54 242.45 87.86C242.45 88.18 242.566 88.444 242.798 88.652C243.03 88.852 243.318 88.952 243.662 88.952Z" fill="#141414" fill-opacity="0.7"/>
<path d="M174.284 114H166.148V112.632L170.594 108.096C171.782 106.908 172.376 105.888 172.376 105.036C172.376 104.34 172.16 103.794 171.728 103.398C171.308 102.99 170.78 102.786 170.144 102.786C168.956 102.786 168.092 103.35 167.552 104.478L166.148 103.65C166.532 102.846 167.072 102.234 167.768 101.814C168.464 101.382 169.25 101.166 170.126 101.166C171.194 101.166 172.112 101.514 172.88 102.21C173.66 102.918 174.05 103.854 174.05 105.018C174.05 106.29 173.3 107.676 171.8 109.176L168.578 112.38H174.284V114ZM182.516 106.314H184.352C185.54 106.314 186.542 106.668 187.358 107.376C188.186 108.084 188.6 109.05 188.6 110.274C188.6 111.51 188.18 112.476 187.34 113.172C186.488 113.88 185.468 114.234 184.28 114.234C183.296 114.234 182.426 114 181.67 113.532C180.926 113.052 180.41 112.386 180.122 111.534L181.544 110.724C181.712 111.324 182.036 111.786 182.516 112.11C182.996 112.434 183.584 112.596 184.28 112.596C185.084 112.596 185.726 112.392 186.206 111.984C186.698 111.564 186.944 110.994 186.944 110.274C186.944 109.554 186.698 108.984 186.206 108.564C185.726 108.144 185.096 107.934 184.316 107.934H180.752L181.22 101.4H188.114V102.966H182.732L182.516 106.314ZM198.201 112.452C197.361 113.64 196.167 114.234 194.619 114.234C193.071 114.234 191.877 113.64 191.037 112.452C190.185 111.252 189.759 109.668 189.759 107.7C189.759 105.732 190.185 104.148 191.037 102.948C191.877 101.76 193.071 101.166 194.619 101.166C196.167 101.166 197.361 101.76 198.201 102.948C199.053 104.148 199.479 105.732 199.479 107.7C199.479 109.668 199.053 111.252 198.201 112.452ZM191.433 107.7C191.433 109.26 191.709 110.466 192.261 111.318C192.813 112.17 193.599 112.596 194.619 112.596C195.639 112.596 196.425 112.17 196.977 111.318C197.541 110.466 197.823 109.26 197.823 107.7C197.823 106.14 197.541 104.934 196.977 104.082C196.425 103.218 195.639 102.786 194.619 102.786C193.599 102.786 192.813 103.212 192.261 104.064C191.709 104.916 191.433 106.128 191.433 107.7ZM209.539 112.452C208.699 113.64 207.505 114.234 205.957 114.234C204.409 114.234 203.215 113.64 202.375 112.452C201.523 111.252 201.097 109.668 201.097 107.7C201.097 105.732 201.523 104.148 202.375 102.948C203.215 101.76 204.409 101.166 205.957 101.166C207.505 101.166 208.699 101.76 209.539 102.948C210.391 104.148 210.817 105.732 210.817 107.7C210.817 109.668 210.391 111.252 209.539 112.452ZM202.771 107.7C202.771 109.26 203.047 110.466 203.599 111.318C204.151 112.17 204.937 112.596 205.957 112.596C206.977 112.596 207.763 112.17 208.315 111.318C208.879 110.466 209.161 109.26 209.161 107.7C209.161 106.14 208.879 104.934 208.315 104.082C207.763 103.218 206.977 102.786 205.957 102.786C204.937 102.786 204.151 103.212 203.599 104.064C203.047 104.916 202.771 106.128 202.771 107.7ZM220.139 105H221.813V114H220.283V107.466L217.421 112.074H217.223L214.361 107.466V114H212.813V105H214.487L217.313 109.554L220.139 105ZM231.53 105H233.204V114H231.674V107.466L228.812 112.074H228.614L225.752 107.466V114H224.204V105H225.878L228.704 109.554L231.53 105Z" fill="#141414"/>
<path d="M181 25C181 23.8954 181.895 23 183 23H219C220.105 23 221 23.8954 221 25V51C221 57.6274 215.627 63 209 63H193C186.373 63 181 57.6274 181 51V25Z" fill="#B9BCC2"/>
<g clip-path="url(#clip0_30_22555)">
<path fill-rule="evenodd" clip-rule="evenodd" d="M195.594 38.5406C195.457 38.3728 195.292 38.2382 195.108 38.1449C194.924 38.0516 194.726 38.0014 194.525 37.9974C194.323 37.9933 194.124 38.0355 193.937 38.1214C193.751 38.2073 193.581 38.3351 193.439 38.4972C193.297 38.6594 193.184 38.8525 193.109 39.0652C193.034 39.2778 192.997 39.5055 193 39.7348C193.004 39.9641 193.048 40.1902 193.13 40.3997C193.212 40.6091 193.33 40.7976 193.477 40.954L199.969 48.3558L201.028 49.5625L202.087 48.3558L208.579 40.9563C208.852 40.6343 209.003 40.2031 209 39.7554C208.997 39.3076 208.839 38.8793 208.562 38.5625C208.284 38.2458 207.908 38.066 207.515 38.0619C207.123 38.0578 206.744 38.2297 206.461 38.5406L202.526 43.0258L202.526 19.3951C202.526 18.9422 202.368 18.5079 202.087 18.1876C201.806 17.8674 201.425 17.6875 201.028 17.6875C200.631 17.6875 200.249 17.8674 199.968 18.1876C199.688 18.5079 199.53 18.9422 199.53 19.3951L199.53 43.0258L195.594 38.5406Z" fill="#F6F6F6"/>
</g>
<path d="M198.666 53.357C199.289 53.357 199.788 53.5587 200.162 53.962C200.543 54.3653 200.734 54.9043 200.734 55.579V59H199.777V55.612C199.777 55.194 199.667 54.8677 199.447 54.633C199.234 54.391 198.941 54.27 198.567 54.27C198.142 54.27 197.808 54.413 197.566 54.699C197.331 54.9777 197.214 55.392 197.214 55.942V59H196.257V55.612C196.257 55.194 196.151 54.8677 195.938 54.633C195.733 54.391 195.45 54.27 195.091 54.27C194.673 54.27 194.332 54.4167 194.068 54.71C193.811 54.996 193.683 55.4067 193.683 55.942V59H192.726V53.5H193.683V54.237C194.057 53.6503 194.603 53.357 195.322 53.357C196.063 53.357 196.602 53.6687 196.939 54.292C197.32 53.6687 197.896 53.357 198.666 53.357ZM208.001 53.357C208.624 53.357 209.123 53.5587 209.497 53.962C209.878 54.3653 210.069 54.9043 210.069 55.579V59H209.112V55.612C209.112 55.194 209.002 54.8677 208.782 54.633C208.569 54.391 208.276 54.27 207.902 54.27C207.477 54.27 207.143 54.413 206.901 54.699C206.666 54.9777 206.549 55.392 206.549 55.942V59H205.592V55.612C205.592 55.194 205.486 54.8677 205.273 54.633C205.068 54.391 204.785 54.27 204.426 54.27C204.008 54.27 203.667 54.4167 203.403 54.71C203.146 54.996 203.018 55.4067 203.018 55.942V59H202.061V53.5H203.018V54.237C203.392 53.6503 203.938 53.357 204.657 53.357C205.398 53.357 205.937 53.6687 206.274 54.292C206.655 53.6687 207.231 53.357 208.001 53.357Z" fill="#F6F6F6"/>
<rect x="278" width="122" height="140" rx="12" fill="#F6F6F6"/>
<path d="M299.3 88.16V91.208H303.38V92H298.46V83.6H303.32V84.392H299.3V87.368H303.02V88.16H299.3ZM309.671 86H310.583V92H309.791V87.212L307.691 90.62H307.595L305.495 87.212V92H304.703V86H305.615L307.643 89.288L309.671 86ZM313.894 88.88L317.11 92H316.054L313.054 89.108V92H312.262V86H313.054V88.652L315.91 86H316.99L313.894 88.88ZM322.622 91.244C322.006 91.844 321.262 92.144 320.39 92.144C319.502 92.144 318.754 91.844 318.146 91.244C317.538 90.636 317.234 89.888 317.234 89C317.234 88.112 317.538 87.368 318.146 86.768C318.754 86.16 319.502 85.856 320.39 85.856C321.27 85.856 322.014 86.16 322.622 86.768C323.238 87.368 323.546 88.112 323.546 89C323.546 89.88 323.238 90.628 322.622 91.244ZM318.71 90.692C319.166 91.148 319.726 91.376 320.39 91.376C321.054 91.376 321.614 91.148 322.07 90.692C322.526 90.22 322.754 89.656 322.754 89C322.754 88.336 322.526 87.776 322.07 87.32C321.614 86.856 321.054 86.624 320.39 86.624C319.726 86.624 319.166 86.856 318.71 87.32C318.254 87.776 318.026 88.336 318.026 89C318.026 89.656 318.254 90.22 318.71 90.692ZM327.667 92.144C326.763 92.144 326.011 91.844 325.411 91.244C324.811 90.628 324.511 89.88 324.511 89C324.511 88.112 324.811 87.368 325.411 86.768C326.011 86.16 326.763 85.856 327.667 85.856C328.259 85.856 328.791 86 329.263 86.288C329.735 86.568 330.079 86.948 330.295 87.428L329.647 87.8C329.487 87.44 329.227 87.156 328.867 86.948C328.515 86.732 328.115 86.624 327.667 86.624C327.003 86.624 326.443 86.856 325.987 87.32C325.531 87.776 325.303 88.336 325.303 89C325.303 89.656 325.531 90.22 325.987 90.692C326.443 91.148 327.003 91.376 327.667 91.376C328.107 91.376 328.503 91.272 328.855 91.064C329.215 90.856 329.495 90.568 329.695 90.2L330.355 90.584C330.107 91.064 329.743 91.444 329.263 91.724C328.783 92.004 328.251 92.144 327.667 92.144ZM330.655 86H335.695V86.768H333.571V92H332.779V86.768H330.655V86ZM337.452 88.28H339.096C339.648 88.28 340.12 88.456 340.512 88.808C340.904 89.152 341.1 89.596 341.1 90.14C341.1 90.692 340.904 91.14 340.512 91.484C340.136 91.828 339.664 92 339.096 92H336.66V86H337.452V88.28ZM337.452 91.232H339.096C339.44 91.232 339.728 91.132 339.96 90.932C340.192 90.724 340.308 90.46 340.308 90.14C340.308 89.82 340.192 89.56 339.96 89.36C339.728 89.152 339.44 89.048 339.096 89.048H337.452V91.232ZM346.929 88.88L350.145 92H349.089L346.089 89.108V92H345.297V86H346.089V88.652L348.945 86H350.025L346.929 88.88ZM355.657 91.244C355.041 91.844 354.297 92.144 353.425 92.144C352.537 92.144 351.789 91.844 351.181 91.244C350.573 90.636 350.269 89.888 350.269 89C350.269 88.112 350.573 87.368 351.181 86.768C351.789 86.16 352.537 85.856 353.425 85.856C354.305 85.856 355.049 86.16 355.657 86.768C356.273 87.368 356.581 88.112 356.581 89C356.581 89.88 356.273 90.628 355.657 91.244ZM351.745 90.692C352.201 91.148 352.761 91.376 353.425 91.376C354.089 91.376 354.649 91.148 355.105 90.692C355.561 90.22 355.789 89.656 355.789 89C355.789 88.336 355.561 87.776 355.105 87.32C354.649 86.856 354.089 86.624 353.425 86.624C352.761 86.624 352.201 86.856 351.745 87.32C351.289 87.776 351.061 88.336 351.061 89C351.061 89.656 351.289 90.22 351.745 90.692ZM361.722 88.916C362.378 89.156 362.706 89.624 362.706 90.32C362.706 90.816 362.538 91.22 362.202 91.532C361.874 91.844 361.414 92 360.822 92H357.906V86H360.582C361.158 86 361.606 86.148 361.926 86.444C362.254 86.74 362.418 87.128 362.418 87.608C362.418 88.208 362.186 88.644 361.722 88.916ZM360.582 86.768H358.698V88.592H360.582C361.278 88.592 361.626 88.28 361.626 87.656C361.626 87.376 361.534 87.16 361.35 87.008C361.174 86.848 360.918 86.768 360.582 86.768ZM358.698 91.232H360.822C361.174 91.232 361.442 91.148 361.626 90.98C361.818 90.812 361.914 90.576 361.914 90.272C361.914 89.984 361.818 89.76 361.626 89.6C361.442 89.44 361.174 89.36 360.822 89.36H358.698V91.232ZM371.154 91.232V86H371.946V92H363.906V86H364.698V91.232H367.53V86H368.322V91.232H371.154ZM378.781 87.176V86H379.573V92H378.781V90.824C378.229 91.704 377.421 92.144 376.357 92.144C375.501 92.144 374.769 91.84 374.161 91.232C373.561 90.624 373.261 89.88 373.261 89C373.261 88.12 373.561 87.376 374.161 86.768C374.769 86.16 375.501 85.856 376.357 85.856C377.421 85.856 378.229 86.296 378.781 87.176ZM374.737 90.692C375.193 91.148 375.753 91.376 376.417 91.376C377.081 91.376 377.641 91.148 378.097 90.692C378.553 90.22 378.781 89.656 378.781 89C378.781 88.336 378.553 87.776 378.097 87.32C377.641 86.856 377.081 86.624 376.417 86.624C375.753 86.624 375.193 86.856 374.737 87.32C374.281 87.776 374.053 88.336 374.053 89C374.053 89.656 374.281 90.22 374.737 90.692Z" fill="#141414" fill-opacity="0.7"/>
<path d="M324.252 112.452C323.412 113.64 322.218 114.234 320.67 114.234C319.122 114.234 317.928 113.64 317.088 112.452C316.236 111.252 315.81 109.668 315.81 107.7C315.81 105.732 316.236 104.148 317.088 102.948C317.928 101.76 319.122 101.166 320.67 101.166C322.218 101.166 323.412 101.76 324.252 102.948C325.104 104.148 325.53 105.732 325.53 107.7C325.53 109.668 325.104 111.252 324.252 112.452ZM317.484 107.7C317.484 109.26 317.76 110.466 318.312 111.318C318.864 112.17 319.65 112.596 320.67 112.596C321.69 112.596 322.476 112.17 323.028 111.318C323.592 110.466 323.874 109.26 323.874 107.7C323.874 106.14 323.592 104.934 323.028 104.082C322.476 103.218 321.69 102.786 320.67 102.786C319.65 102.786 318.864 103.212 318.312 104.064C317.76 104.916 317.484 106.128 317.484 107.7ZM327.971 114.198C327.647 114.198 327.371 114.084 327.143 113.856C326.915 113.628 326.801 113.352 326.801 113.028C326.801 112.704 326.915 112.428 327.143 112.2C327.371 111.972 327.647 111.858 327.971 111.858C328.307 111.858 328.583 111.972 328.799 112.2C329.027 112.428 329.141 112.704 329.141 113.028C329.141 113.352 329.027 113.628 328.799 113.856C328.583 114.084 328.307 114.198 327.971 114.198ZM330.422 102.552L333.734 101.4H335.174V114H333.518V103.2L330.836 103.992L330.422 102.552ZM351.994 104.766C353.014 104.766 353.83 105.096 354.442 105.756C355.066 106.416 355.378 107.298 355.378 108.402V114H353.812V108.456C353.812 107.772 353.632 107.238 353.272 106.854C352.924 106.458 352.444 106.26 351.832 106.26C351.136 106.26 350.59 106.494 350.194 106.962C349.81 107.418 349.618 108.096 349.618 108.996V114H348.052V108.456C348.052 107.772 347.878 107.238 347.53 106.854C347.194 106.458 346.732 106.26 346.144 106.26C345.46 106.26 344.902 106.5 344.47 106.98C344.05 107.448 343.84 108.12 343.84 108.996V114H342.274V105H343.84V106.206C344.452 105.246 345.346 104.766 346.522 104.766C347.734 104.766 348.616 105.276 349.168 106.296C349.792 105.276 350.734 104.766 351.994 104.766ZM359.331 98.646C360.183 98.646 360.825 98.832 361.257 99.204C361.689 99.576 361.905 100.05 361.905 100.626C361.905 101.106 361.773 101.502 361.509 101.814C361.257 102.126 360.951 102.342 360.591 102.462V102.516C361.059 102.6 361.431 102.798 361.707 103.11C361.995 103.41 362.139 103.806 362.139 104.298C362.139 104.994 361.887 105.564 361.383 106.008C360.879 106.44 360.093 106.656 359.025 106.656C358.581 106.656 358.167 106.62 357.783 106.548C357.399 106.464 357.027 106.332 356.667 106.152V105.018C357.075 105.21 357.483 105.36 357.891 105.468C358.299 105.576 358.683 105.63 359.043 105.63C359.667 105.63 360.123 105.51 360.411 105.27C360.699 105.018 360.843 104.682 360.843 104.262C360.843 103.83 360.669 103.518 360.321 103.326C359.973 103.122 359.487 103.02 358.863 103.02H357.837V102.03H358.863C359.463 102.03 359.901 101.916 360.177 101.688C360.465 101.448 360.609 101.142 360.609 100.77C360.609 100.386 360.483 100.11 360.231 99.942C359.991 99.762 359.697 99.672 359.349 99.672C358.977 99.672 358.629 99.738 358.305 99.87C357.993 99.99 357.675 100.152 357.351 100.356L356.703 99.528C357.075 99.252 357.465 99.036 357.873 98.88C358.293 98.724 358.779 98.646 359.331 98.646Z" fill="#141414"/>
<circle cx="339" cy="43" r="20" fill="#B9BCC2"/>
<circle cx="339" cy="43" r="14.5" fill="#B9BCC2" stroke="#F6F6F6" stroke-width="3"/>
<path d="M339.94 41.74C340.563 41.74 341.062 41.9417 341.436 42.345C341.817 42.7483 342.008 43.2873 342.008 43.962V47.383H341.051V43.995C341.051 43.577 340.941 43.2507 340.721 43.016C340.508 42.774 340.215 42.653 339.841 42.653C339.416 42.653 339.082 42.796 338.84 43.082C338.605 43.3607 338.488 43.775 338.488 44.325V47.383H337.531V43.995C337.531 43.577 337.425 43.2507 337.212 43.016C337.007 42.774 336.724 42.653 336.365 42.653C335.947 42.653 335.606 42.7997 335.342 43.093C335.085 43.379 334.957 43.7897 334.957 44.325V47.383H334V41.883H334.957V42.62C335.331 42.0333 335.877 41.74 336.596 41.74C337.337 41.74 337.876 42.0517 338.213 42.675C338.594 42.0517 339.17 41.74 339.94 41.74Z" fill="#F6F6F6"/>
<path d="M344.424 38C344.945 38 345.337 38.1137 345.601 38.341C345.865 38.5683 345.997 38.858 345.997 39.21C345.997 39.5033 345.916 39.7453 345.755 39.936C345.601 40.1267 345.414 40.2587 345.194 40.332V40.365C345.48 40.4163 345.707 40.5373 345.876 40.728C346.052 40.9113 346.14 41.1533 346.14 41.454C346.14 41.8793 345.986 42.2277 345.678 42.499C345.37 42.763 344.89 42.895 344.237 42.895C343.966 42.895 343.713 42.873 343.478 42.829C343.243 42.7777 343.016 42.697 342.796 42.587V41.894C343.045 42.0113 343.295 42.103 343.544 42.169C343.793 42.235 344.028 42.268 344.248 42.268C344.629 42.268 344.908 42.1947 345.084 42.048C345.26 41.894 345.348 41.6887 345.348 41.432C345.348 41.168 345.242 40.9773 345.029 40.86C344.816 40.7353 344.519 40.673 344.138 40.673H343.511V40.068H344.138C344.505 40.068 344.772 39.9983 344.941 39.859C345.117 39.7123 345.205 39.5253 345.205 39.298C345.205 39.0633 345.128 38.8947 344.974 38.792C344.827 38.682 344.648 38.627 344.435 38.627C344.208 38.627 343.995 38.6673 343.797 38.748C343.606 38.8213 343.412 38.9203 343.214 39.045L342.818 38.539C343.045 38.3703 343.284 38.2383 343.533 38.143C343.79 38.0477 344.087 38 344.424 38Z" fill="#F6F6F6"/>
<defs>
<clipPath id="clip0_30_22555">
<rect width="31" height="36" fill="white" transform="translate(217 57) rotate(-180)"/>
</clipPath>
</defs>
</svg>
